M48
;Layer_Color=9474304
;FILE_FORMAT=4:4
METRIC,LZ
;TYPE=PLATED
T1F00S00C0.5080
T2F00S00C0.9000
%
T01
X000508Y000254
X00127
X002032
X002794
X0029972Y002159
X0031369Y0020955
X0033909Y0020828
X003683Y0020955
X0037465Y0025654
Y0027813
X00381Y0032639
X0038354Y0035052
X0033909Y0032766
X0029337Y0032512
X0029972Y0027686
X0029845Y0026162
X0031623Y0025019
X0026162Y0023114
X00254Y002667
X0023114Y0021463
X0019812Y0020574
X000254Y00127
X0030226Y0038862
X0032512Y003937
X0041402Y0022987
X0042672Y0021717
X005588Y000254
X00635
X007112
X007874
X008636
X00889Y000508
Y00127
Y002032
Y002794
Y003556
Y004318
Y00508
Y005842
X008636Y006096
X008128
X007366
X006604
X005842
X00508
X004318
X003556
X002794
X002032
X00127
X000508
X000254Y005334
X0004191Y0048133
X0006731
X0009271Y0048006
X0011557
X0010795Y0041148
X001778Y004445
X0021717Y004191
T02
X00063Y0022946
Y0027346
X0037084Y0015113
Y0012573
Y0010033
Y0007493
Y0004953
X0050546
Y0007493
Y0010033
Y0012573
Y0015113
X0061722Y0012573
Y0010033
X0067183
Y0007493
Y0012573
Y0015113
X0068199Y0024003
X0065659
X0063119
X0070739
X0073279
X0075819
X0078359
X0078232Y0038354
X0075692
X0073152
X0070612
X0068072
X0065532
X0062992
X0080772
X0080899Y0024003
X0081026Y0015113
Y0012573
Y0010033
Y0052451
Y0054991
Y0057531
X0067183
Y0054991
Y0052451
Y0049911
X0061722Y0052451
Y0054991
X0050546
Y0052451
Y0049911
Y0047371
Y0057531
X0037084
Y0054991
Y0052451
Y0049911
Y0047371
M30
