G04*
G04 #@! TF.GenerationSoftware,Altium Limited,Altium Designer,23.6.0 (18)*
G04*
G04 Layer_Color=15441517*
%FSLAX44Y44*%
%MOMM*%
G71*
G04*
G04 #@! TF.SameCoordinates,D937CF5F-481C-4708-B2B1-4CAA2D9F1EF8*
G04*
G04*
G04 #@! TF.FilePolarity,Positive*
G04*
G01*
G75*
G36*
X405267Y305049D02*
X405465Y305035D01*
X405831Y304936D01*
X406155Y304809D01*
X406437Y304668D01*
X406550Y304598D01*
X406649Y304527D01*
X406747Y304457D01*
X406818Y304400D01*
X406874Y304344D01*
X406917Y304301D01*
X406945Y304287D01*
X406959Y304273D01*
X407100Y304118D01*
X407212Y303963D01*
X407311Y303808D01*
X407410Y303653D01*
X407551Y303329D01*
X407635Y303033D01*
X407692Y302779D01*
X407706Y302666D01*
X407720Y302568D01*
X407734Y302497D01*
Y302441D01*
Y302398D01*
Y302384D01*
Y297042D01*
X407720Y296844D01*
X407706Y296647D01*
X407607Y296280D01*
X407495Y295956D01*
X407339Y295674D01*
X407269Y295561D01*
X407198Y295463D01*
X407142Y295364D01*
X407086Y295294D01*
X407029Y295237D01*
X406987Y295195D01*
X406973Y295167D01*
X406959Y295153D01*
X406804Y295012D01*
X406649Y294899D01*
X406494Y294800D01*
X406339Y294701D01*
X406014Y294561D01*
X405718Y294476D01*
X405465Y294419D01*
X405352Y294405D01*
X405253Y294391D01*
X405183Y294377D01*
X402927D01*
X402758Y294405D01*
X402631Y294462D01*
X402532Y294546D01*
X402476Y294645D01*
X402434Y294744D01*
X402420Y294828D01*
X402406Y294885D01*
Y294913D01*
X402434Y295096D01*
X402490Y295223D01*
X402575Y295322D01*
X402659Y295378D01*
X402758Y295420D01*
X402842Y295434D01*
X402899Y295449D01*
X405070D01*
X405309Y295463D01*
X405521Y295519D01*
X405718Y295590D01*
X405887Y295688D01*
X406014Y295773D01*
X406113Y295843D01*
X406169Y295900D01*
X406198Y295914D01*
X406353Y296097D01*
X406465Y296280D01*
X406550Y296478D01*
X406606Y296647D01*
X406635Y296802D01*
X406649Y296929D01*
X406663Y297013D01*
Y297027D01*
Y297042D01*
Y302384D01*
X406649Y302624D01*
X406592Y302835D01*
X406522Y303033D01*
X406437Y303202D01*
X406353Y303329D01*
X406282Y303428D01*
X406226Y303498D01*
X406212Y303512D01*
X406028Y303667D01*
X405831Y303794D01*
X405648Y303879D01*
X405465Y303935D01*
X405309Y303963D01*
X405183Y303991D01*
X402927D01*
X402758Y304020D01*
X402631Y304076D01*
X402532Y304161D01*
X402476Y304259D01*
X402434Y304358D01*
X402420Y304443D01*
X402406Y304499D01*
Y304527D01*
X402434Y304710D01*
X402490Y304837D01*
X402575Y304936D01*
X402659Y304992D01*
X402758Y305035D01*
X402842Y305049D01*
X402899Y305063D01*
X405070D01*
X405267Y305049D01*
D02*
G37*
G36*
X397782D02*
X397979Y305035D01*
X398345Y304936D01*
X398670Y304809D01*
X398952Y304668D01*
X399064Y304598D01*
X399163Y304527D01*
X399262Y304457D01*
X399332Y304400D01*
X399389Y304344D01*
X399431Y304301D01*
X399459Y304287D01*
X399473Y304273D01*
X399614Y304118D01*
X399727Y303963D01*
X399826Y303808D01*
X399924Y303653D01*
X400065Y303329D01*
X400150Y303033D01*
X400206Y302779D01*
X400220Y302666D01*
X400234Y302568D01*
X400249Y302497D01*
Y302441D01*
Y302398D01*
Y302384D01*
X400234Y302145D01*
X400206Y301919D01*
X400150Y301694D01*
X400079Y301496D01*
X400009Y301299D01*
X399910Y301130D01*
X399812Y300961D01*
X399713Y300820D01*
X399614Y300679D01*
X399530Y300566D01*
X399431Y300467D01*
X399361Y300397D01*
X399290Y300326D01*
X399234Y300284D01*
X399206Y300256D01*
X399191Y300242D01*
X399375Y300086D01*
X399544Y299917D01*
X399685Y299748D01*
X399798Y299565D01*
X399910Y299396D01*
X399995Y299212D01*
X400065Y299043D01*
X400122Y298874D01*
X400164Y298719D01*
X400192Y298578D01*
X400220Y298451D01*
X400234Y298339D01*
Y298240D01*
X400249Y298169D01*
Y298127D01*
Y298113D01*
Y297042D01*
X400234Y296844D01*
X400220Y296647D01*
X400122Y296280D01*
X400009Y295956D01*
X399854Y295674D01*
X399783Y295561D01*
X399713Y295463D01*
X399657Y295364D01*
X399600Y295294D01*
X399544Y295237D01*
X399501Y295195D01*
X399487Y295167D01*
X399473Y295153D01*
X399318Y295012D01*
X399163Y294899D01*
X399008Y294800D01*
X398853Y294701D01*
X398529Y294561D01*
X398233Y294476D01*
X397979Y294419D01*
X397866Y294405D01*
X397768Y294391D01*
X397697Y294377D01*
X397584D01*
X397373Y294391D01*
X397190Y294405D01*
X396823Y294504D01*
X396499Y294617D01*
X396217Y294772D01*
X396104Y294842D01*
X396005Y294913D01*
X395907Y294969D01*
X395836Y295026D01*
X395780Y295082D01*
X395723Y295124D01*
X395709Y295138D01*
X395695Y295153D01*
X395554Y295308D01*
X395428Y295463D01*
X395329Y295618D01*
X395244Y295773D01*
X395103Y296097D01*
X395005Y296393D01*
X394948Y296647D01*
X394934Y296760D01*
X394920Y296858D01*
X394906Y296929D01*
Y296999D01*
Y297027D01*
Y297042D01*
Y297281D01*
Y297507D01*
X394920Y297704D01*
Y297887D01*
X394934Y298043D01*
Y298197D01*
X394948Y298324D01*
Y298437D01*
X394962Y298522D01*
X394976Y298606D01*
Y298677D01*
X394990Y298733D01*
X395005Y298804D01*
Y298818D01*
X395103Y299128D01*
X395244Y299396D01*
X395399Y299635D01*
X395568Y299847D01*
X395723Y300016D01*
X395850Y300143D01*
X395949Y300213D01*
X395963Y300242D01*
X395977D01*
X395794Y300397D01*
X395625Y300566D01*
X395484Y300749D01*
X395357Y300918D01*
X395258Y301101D01*
X395174Y301285D01*
X395089Y301454D01*
X395033Y301623D01*
X394990Y301778D01*
X394962Y301919D01*
X394934Y302046D01*
X394920Y302159D01*
X394906Y302257D01*
Y302328D01*
Y302370D01*
Y302384D01*
X394920Y302596D01*
X394934Y302779D01*
X395033Y303146D01*
X395160Y303470D01*
X395301Y303752D01*
X395371Y303864D01*
X395442Y303963D01*
X395512Y304062D01*
X395568Y304132D01*
X395625Y304189D01*
X395667Y304245D01*
X395681Y304259D01*
X395695Y304273D01*
X395850Y304414D01*
X396005Y304541D01*
X396161Y304640D01*
X396316Y304724D01*
X396640Y304865D01*
X396936Y304964D01*
X397190Y305021D01*
X397302Y305035D01*
X397401Y305049D01*
X397472Y305063D01*
X397584D01*
X397782Y305049D01*
D02*
G37*
G36*
X285887Y310129D02*
X286084Y310115D01*
X286451Y310016D01*
X286775Y309889D01*
X287057Y309748D01*
X287170Y309678D01*
X287269Y309607D01*
X287367Y309537D01*
X287438Y309480D01*
X287494Y309424D01*
X287537Y309382D01*
X287565Y309367D01*
X287579Y309353D01*
X287720Y309198D01*
X287833Y309043D01*
X287931Y308888D01*
X288030Y308733D01*
X288171Y308409D01*
X288256Y308113D01*
X288312Y307859D01*
X288326Y307746D01*
X288340Y307648D01*
X288354Y307577D01*
Y307521D01*
Y307478D01*
Y307464D01*
Y302122D01*
X288340Y301924D01*
X288326Y301727D01*
X288227Y301360D01*
X288114Y301036D01*
X287959Y300754D01*
X287889Y300641D01*
X287818Y300543D01*
X287762Y300444D01*
X287706Y300373D01*
X287649Y300317D01*
X287607Y300275D01*
X287593Y300247D01*
X287579Y300233D01*
X287424Y300092D01*
X287269Y299979D01*
X287114Y299880D01*
X286959Y299781D01*
X286634Y299641D01*
X286338Y299556D01*
X286084Y299499D01*
X285972Y299485D01*
X285873Y299471D01*
X285803Y299457D01*
X283547D01*
X283378Y299485D01*
X283251Y299542D01*
X283152Y299626D01*
X283096Y299725D01*
X283054Y299824D01*
X283040Y299908D01*
X283025Y299965D01*
Y299993D01*
X283054Y300176D01*
X283110Y300303D01*
X283195Y300402D01*
X283279Y300458D01*
X283378Y300500D01*
X283463Y300515D01*
X283519Y300529D01*
X285690D01*
X285930Y300543D01*
X286141Y300599D01*
X286338Y300670D01*
X286507Y300768D01*
X286634Y300853D01*
X286733Y300923D01*
X286789Y300980D01*
X286818Y300994D01*
X286973Y301177D01*
X287085Y301360D01*
X287170Y301558D01*
X287226Y301727D01*
X287255Y301882D01*
X287269Y302009D01*
X287283Y302093D01*
Y302108D01*
Y302122D01*
Y307464D01*
X287269Y307704D01*
X287212Y307915D01*
X287142Y308113D01*
X287057Y308282D01*
X286973Y308409D01*
X286902Y308507D01*
X286846Y308578D01*
X286832Y308592D01*
X286648Y308747D01*
X286451Y308874D01*
X286268Y308959D01*
X286084Y309015D01*
X285930Y309043D01*
X285803Y309071D01*
X283547D01*
X283378Y309100D01*
X283251Y309156D01*
X283152Y309241D01*
X283096Y309339D01*
X283054Y309438D01*
X283040Y309522D01*
X283025Y309579D01*
Y309607D01*
X283054Y309790D01*
X283110Y309917D01*
X283195Y310016D01*
X283279Y310072D01*
X283378Y310115D01*
X283463Y310129D01*
X283519Y310143D01*
X285690D01*
X285887Y310129D01*
D02*
G37*
G36*
X280516Y310115D02*
X280643Y310058D01*
X280742Y309974D01*
X280798Y309875D01*
X280840Y309776D01*
X280854Y309692D01*
X280869Y309635D01*
Y309607D01*
Y305322D01*
X280840Y305152D01*
X280784Y305026D01*
X280700Y304927D01*
X280601Y304870D01*
X280516Y304828D01*
X280432Y304814D01*
X280375Y304800D01*
X278204D01*
X277965Y304786D01*
X277753Y304729D01*
X277556Y304645D01*
X277387Y304560D01*
X277260Y304476D01*
X277161Y304391D01*
X277091Y304335D01*
X277076Y304321D01*
X276922Y304137D01*
X276795Y303954D01*
X276710Y303757D01*
X276654Y303588D01*
X276625Y303433D01*
X276597Y303306D01*
Y303221D01*
Y303207D01*
Y303193D01*
Y302122D01*
X276611Y301882D01*
X276668Y301670D01*
X276738Y301473D01*
X276823Y301304D01*
X276922Y301177D01*
X276992Y301078D01*
X277048Y301022D01*
X277062Y300994D01*
X277246Y300839D01*
X277443Y300726D01*
X277626Y300641D01*
X277810Y300585D01*
X277965Y300557D01*
X278092Y300543D01*
X278176Y300529D01*
X280347D01*
X280516Y300500D01*
X280643Y300444D01*
X280742Y300359D01*
X280798Y300261D01*
X280840Y300162D01*
X280854Y300077D01*
X280869Y300021D01*
Y299993D01*
X280840Y299810D01*
X280784Y299683D01*
X280700Y299584D01*
X280601Y299528D01*
X280516Y299485D01*
X280432Y299471D01*
X280375Y299457D01*
X278204D01*
X278007Y299471D01*
X277810Y299485D01*
X277443Y299584D01*
X277119Y299697D01*
X276851Y299852D01*
X276724Y299922D01*
X276625Y299993D01*
X276527Y300049D01*
X276456Y300106D01*
X276400Y300162D01*
X276358Y300204D01*
X276329Y300219D01*
X276315Y300233D01*
X276174Y300388D01*
X276047Y300543D01*
X275949Y300698D01*
X275864Y300853D01*
X275723Y301177D01*
X275625Y301473D01*
X275568Y301727D01*
X275554Y301840D01*
X275540Y301938D01*
X275526Y302009D01*
Y302079D01*
Y302108D01*
Y302122D01*
Y303193D01*
X275540Y303390D01*
X275554Y303588D01*
X275653Y303954D01*
X275780Y304278D01*
X275921Y304546D01*
X275991Y304673D01*
X276062Y304772D01*
X276132Y304870D01*
X276188Y304941D01*
X276245Y304997D01*
X276287Y305040D01*
X276301Y305068D01*
X276315Y305082D01*
X276470Y305223D01*
X276625Y305350D01*
X276780Y305448D01*
X276936Y305533D01*
X277260Y305674D01*
X277556Y305773D01*
X277810Y305829D01*
X277922Y305843D01*
X278021Y305857D01*
X278092Y305871D01*
X279797D01*
Y309071D01*
X276597D01*
X276414Y309100D01*
X276287Y309156D01*
X276188Y309241D01*
X276132Y309339D01*
X276090Y309438D01*
X276076Y309522D01*
X276062Y309579D01*
Y309607D01*
X276090Y309790D01*
X276146Y309917D01*
X276231Y310016D01*
X276329Y310072D01*
X276428Y310115D01*
X276513Y310129D01*
X276569Y310143D01*
X280347D01*
X280516Y310115D01*
D02*
G37*
G36*
X320397Y332989D02*
X320468Y332975D01*
X320609Y332904D01*
X320665Y332862D01*
X320708Y332820D01*
X320722Y332805D01*
X320736Y332791D01*
X322836Y330691D01*
X322921Y330564D01*
X322963Y330451D01*
X322977Y330367D01*
Y330338D01*
Y330324D01*
X322949Y330141D01*
X322893Y330014D01*
X322808Y329916D01*
X322709Y329859D01*
X322611Y329817D01*
X322526Y329803D01*
X322470Y329789D01*
X322442D01*
X322371Y329803D01*
X322301Y329817D01*
X322174Y329873D01*
X322103Y329916D01*
X322075Y329944D01*
X320849Y331156D01*
Y322839D01*
X320820Y322670D01*
X320764Y322543D01*
X320679Y322444D01*
X320581Y322388D01*
X320482Y322345D01*
X320397Y322331D01*
X320341Y322317D01*
X320313D01*
X320130Y322345D01*
X320003Y322402D01*
X319904Y322486D01*
X319848Y322585D01*
X319805Y322670D01*
X319791Y322754D01*
X319777Y322811D01*
Y322839D01*
Y332467D01*
X319805Y332650D01*
X319862Y332777D01*
X319946Y332876D01*
X320045Y332932D01*
X320144Y332975D01*
X320228Y332989D01*
X320285Y333003D01*
X320313D01*
X320397Y332989D01*
D02*
G37*
G36*
X327996D02*
X328193Y332975D01*
X328560Y332876D01*
X328884Y332749D01*
X329166Y332608D01*
X329279Y332538D01*
X329377Y332467D01*
X329476Y332397D01*
X329547Y332340D01*
X329603Y332284D01*
X329645Y332242D01*
X329673Y332227D01*
X329687Y332213D01*
X329828Y332058D01*
X329941Y331903D01*
X330040Y331748D01*
X330139Y331593D01*
X330280Y331269D01*
X330364Y330973D01*
X330420Y330719D01*
X330435Y330606D01*
X330449Y330508D01*
X330463Y330437D01*
Y330381D01*
Y330338D01*
Y330324D01*
Y324982D01*
X330449Y324784D01*
X330435Y324587D01*
X330336Y324220D01*
X330223Y323896D01*
X330068Y323614D01*
X329998Y323501D01*
X329927Y323403D01*
X329871Y323304D01*
X329814Y323233D01*
X329758Y323177D01*
X329716Y323135D01*
X329701Y323107D01*
X329687Y323093D01*
X329532Y322952D01*
X329377Y322839D01*
X329222Y322740D01*
X329067Y322641D01*
X328743Y322500D01*
X328447Y322416D01*
X328193Y322360D01*
X328080Y322345D01*
X327982Y322331D01*
X327911Y322317D01*
X325656D01*
X325486Y322345D01*
X325360Y322402D01*
X325261Y322486D01*
X325205Y322585D01*
X325162Y322684D01*
X325148Y322768D01*
X325134Y322825D01*
Y322853D01*
X325162Y323036D01*
X325219Y323163D01*
X325303Y323262D01*
X325388Y323318D01*
X325486Y323360D01*
X325571Y323374D01*
X325628Y323389D01*
X327798D01*
X328038Y323403D01*
X328250Y323459D01*
X328447Y323530D01*
X328616Y323628D01*
X328743Y323713D01*
X328842Y323783D01*
X328898Y323840D01*
X328926Y323854D01*
X329081Y324037D01*
X329194Y324220D01*
X329279Y324418D01*
X329335Y324587D01*
X329363Y324742D01*
X329377Y324869D01*
X329391Y324953D01*
Y324967D01*
Y324982D01*
Y330324D01*
X329377Y330564D01*
X329321Y330775D01*
X329250Y330973D01*
X329166Y331142D01*
X329081Y331269D01*
X329011Y331367D01*
X328954Y331438D01*
X328940Y331452D01*
X328757Y331607D01*
X328560Y331734D01*
X328376Y331819D01*
X328193Y331875D01*
X328038Y331903D01*
X327911Y331931D01*
X325656D01*
X325486Y331960D01*
X325360Y332016D01*
X325261Y332101D01*
X325205Y332199D01*
X325162Y332298D01*
X325148Y332383D01*
X325134Y332439D01*
Y332467D01*
X325162Y332650D01*
X325219Y332777D01*
X325303Y332876D01*
X325388Y332932D01*
X325486Y332975D01*
X325571Y332989D01*
X325628Y333003D01*
X327798D01*
X327996Y332989D01*
D02*
G37*
G36*
X362080Y327909D02*
X362277Y327895D01*
X362644Y327796D01*
X362968Y327669D01*
X363250Y327528D01*
X363363Y327458D01*
X363462Y327387D01*
X363560Y327317D01*
X363631Y327260D01*
X363687Y327204D01*
X363729Y327161D01*
X363758Y327147D01*
X363772Y327133D01*
X363913Y326978D01*
X364025Y326823D01*
X364124Y326668D01*
X364223Y326513D01*
X364364Y326189D01*
X364448Y325893D01*
X364505Y325639D01*
X364519Y325526D01*
X364533Y325428D01*
X364547Y325357D01*
Y325301D01*
Y325258D01*
Y325244D01*
Y319902D01*
X364533Y319704D01*
X364519Y319507D01*
X364420Y319140D01*
X364307Y318816D01*
X364152Y318534D01*
X364082Y318421D01*
X364011Y318323D01*
X363955Y318224D01*
X363899Y318153D01*
X363842Y318097D01*
X363800Y318055D01*
X363786Y318027D01*
X363772Y318013D01*
X363617Y317872D01*
X363462Y317759D01*
X363307Y317660D01*
X363152Y317561D01*
X362827Y317421D01*
X362531Y317336D01*
X362277Y317279D01*
X362165Y317265D01*
X362066Y317251D01*
X361996Y317237D01*
X359740D01*
X359571Y317265D01*
X359444Y317322D01*
X359345Y317406D01*
X359289Y317505D01*
X359247Y317604D01*
X359232Y317688D01*
X359218Y317745D01*
Y317773D01*
X359247Y317956D01*
X359303Y318083D01*
X359388Y318182D01*
X359472Y318238D01*
X359571Y318280D01*
X359655Y318295D01*
X359712Y318309D01*
X361883D01*
X362122Y318323D01*
X362334Y318379D01*
X362531Y318450D01*
X362700Y318548D01*
X362827Y318633D01*
X362926Y318703D01*
X362982Y318760D01*
X363010Y318774D01*
X363166Y318957D01*
X363278Y319140D01*
X363363Y319338D01*
X363419Y319507D01*
X363447Y319662D01*
X363462Y319789D01*
X363476Y319873D01*
Y319888D01*
Y319902D01*
Y325244D01*
X363462Y325484D01*
X363405Y325695D01*
X363335Y325893D01*
X363250Y326062D01*
X363166Y326189D01*
X363095Y326287D01*
X363039Y326358D01*
X363025Y326372D01*
X362841Y326527D01*
X362644Y326654D01*
X362461Y326739D01*
X362277Y326795D01*
X362122Y326823D01*
X361996Y326851D01*
X359740D01*
X359571Y326880D01*
X359444Y326936D01*
X359345Y327021D01*
X359289Y327119D01*
X359247Y327218D01*
X359232Y327303D01*
X359218Y327359D01*
Y327387D01*
X359247Y327570D01*
X359303Y327697D01*
X359388Y327796D01*
X359472Y327852D01*
X359571Y327895D01*
X359655Y327909D01*
X359712Y327923D01*
X361883D01*
X362080Y327909D01*
D02*
G37*
G36*
X356723Y327881D02*
X356850Y327824D01*
X356949Y327739D01*
X357005Y327655D01*
X357048Y327556D01*
X357062Y327472D01*
X357076Y327415D01*
Y327387D01*
X357048Y327204D01*
X356991Y327077D01*
X356907Y326978D01*
X356808Y326922D01*
X356709Y326880D01*
X356625Y326866D01*
X356568Y326851D01*
X352931D01*
X354933Y317886D01*
Y317843D01*
Y317801D01*
Y317773D01*
Y317759D01*
X354905Y317590D01*
X354848Y317463D01*
X354764Y317364D01*
X354665Y317308D01*
X354566Y317265D01*
X354482Y317251D01*
X354425Y317237D01*
X354397D01*
X354256Y317251D01*
X354143Y317308D01*
X354045Y317364D01*
X353974Y317449D01*
X353932Y317519D01*
X353904Y317590D01*
X353876Y317632D01*
Y317646D01*
X351747Y327274D01*
X351733Y327359D01*
Y327387D01*
Y327401D01*
X351761Y327570D01*
X351818Y327697D01*
X351902Y327782D01*
X352001Y327852D01*
X352099Y327881D01*
X352184Y327895D01*
X352240Y327909D01*
X356540D01*
X356723Y327881D01*
D02*
G37*
G36*
X364627Y251709D02*
X364824Y251695D01*
X365191Y251596D01*
X365515Y251469D01*
X365797Y251328D01*
X365910Y251258D01*
X366009Y251187D01*
X366107Y251117D01*
X366178Y251060D01*
X366234Y251004D01*
X366277Y250961D01*
X366305Y250947D01*
X366319Y250933D01*
X366460Y250778D01*
X366572Y250623D01*
X366671Y250468D01*
X366770Y250313D01*
X366911Y249989D01*
X366996Y249693D01*
X367052Y249439D01*
X367066Y249326D01*
X367080Y249228D01*
X367094Y249157D01*
Y249101D01*
Y249058D01*
Y249044D01*
Y243702D01*
X367080Y243504D01*
X367066Y243307D01*
X366967Y242940D01*
X366855Y242616D01*
X366699Y242334D01*
X366629Y242221D01*
X366558Y242123D01*
X366502Y242024D01*
X366446Y241954D01*
X366389Y241897D01*
X366347Y241855D01*
X366333Y241827D01*
X366319Y241813D01*
X366164Y241672D01*
X366009Y241559D01*
X365854Y241460D01*
X365699Y241362D01*
X365374Y241220D01*
X365078Y241136D01*
X364824Y241080D01*
X364712Y241065D01*
X364613Y241051D01*
X364543Y241037D01*
X362287D01*
X362118Y241065D01*
X361991Y241122D01*
X361892Y241206D01*
X361836Y241305D01*
X361794Y241404D01*
X361780Y241488D01*
X361766Y241545D01*
Y241573D01*
X361794Y241756D01*
X361850Y241883D01*
X361935Y241982D01*
X362019Y242038D01*
X362118Y242080D01*
X362202Y242094D01*
X362259Y242109D01*
X364430D01*
X364669Y242123D01*
X364881Y242179D01*
X365078Y242250D01*
X365247Y242348D01*
X365374Y242433D01*
X365473Y242503D01*
X365529Y242560D01*
X365558Y242574D01*
X365713Y242757D01*
X365825Y242940D01*
X365910Y243138D01*
X365966Y243307D01*
X365995Y243462D01*
X366009Y243589D01*
X366023Y243673D01*
Y243687D01*
Y243702D01*
Y249044D01*
X366009Y249284D01*
X365952Y249495D01*
X365882Y249693D01*
X365797Y249862D01*
X365713Y249989D01*
X365642Y250088D01*
X365586Y250158D01*
X365572Y250172D01*
X365388Y250327D01*
X365191Y250454D01*
X365008Y250539D01*
X364824Y250595D01*
X364669Y250623D01*
X364543Y250651D01*
X362287D01*
X362118Y250680D01*
X361991Y250736D01*
X361892Y250821D01*
X361836Y250919D01*
X361794Y251018D01*
X361780Y251103D01*
X361766Y251159D01*
Y251187D01*
X361794Y251370D01*
X361850Y251497D01*
X361935Y251596D01*
X362019Y251652D01*
X362118Y251695D01*
X362202Y251709D01*
X362259Y251723D01*
X364430D01*
X364627Y251709D01*
D02*
G37*
G36*
X359256Y251695D02*
X359383Y251638D01*
X359482Y251554D01*
X359538Y251455D01*
X359580Y251356D01*
X359594Y251272D01*
X359609Y251215D01*
Y251187D01*
X359580Y251004D01*
X359524Y250877D01*
X359440Y250778D01*
X359341Y250722D01*
X359256Y250680D01*
X359172Y250665D01*
X359115Y250651D01*
X356944D01*
X356705Y250637D01*
X356493Y250581D01*
X356296Y250496D01*
X356127Y250412D01*
X356000Y250327D01*
X355901Y250243D01*
X355831Y250186D01*
X355816Y250172D01*
X355662Y249989D01*
X355535Y249806D01*
X355450Y249608D01*
X355394Y249439D01*
X355365Y249284D01*
X355337Y249157D01*
Y249072D01*
Y249058D01*
Y249044D01*
X355351Y248805D01*
X355408Y248579D01*
X355478Y248382D01*
X355563Y248227D01*
X355662Y248086D01*
X355732Y247987D01*
X355788Y247931D01*
X355802Y247903D01*
X355986Y247747D01*
X356183Y247649D01*
X356366Y247564D01*
X356550Y247508D01*
X356705Y247480D01*
X356832Y247465D01*
X356916Y247451D01*
X358016D01*
X358185Y247423D01*
X358312Y247367D01*
X358410Y247282D01*
X358467Y247183D01*
X358509Y247085D01*
X358523Y247000D01*
X358537Y246944D01*
Y246916D01*
X358509Y246732D01*
X358453Y246606D01*
X358368Y246507D01*
X358269Y246451D01*
X358185Y246408D01*
X358100Y246394D01*
X358044Y246380D01*
X356944D01*
X356705Y246366D01*
X356493Y246310D01*
X356296Y246225D01*
X356127Y246140D01*
X356000Y246056D01*
X355901Y245971D01*
X355831Y245915D01*
X355816Y245901D01*
X355662Y245717D01*
X355535Y245534D01*
X355450Y245337D01*
X355394Y245168D01*
X355365Y245013D01*
X355337Y244886D01*
Y244801D01*
Y244787D01*
Y244773D01*
Y243702D01*
X355351Y243462D01*
X355408Y243251D01*
X355478Y243053D01*
X355563Y242884D01*
X355662Y242757D01*
X355732Y242658D01*
X355788Y242602D01*
X355802Y242574D01*
X355986Y242419D01*
X356183Y242306D01*
X356366Y242221D01*
X356550Y242165D01*
X356705Y242137D01*
X356832Y242123D01*
X356916Y242109D01*
X359087D01*
X359256Y242080D01*
X359383Y242024D01*
X359482Y241939D01*
X359538Y241841D01*
X359580Y241742D01*
X359594Y241658D01*
X359609Y241601D01*
Y241573D01*
X359580Y241390D01*
X359524Y241263D01*
X359440Y241164D01*
X359341Y241108D01*
X359256Y241065D01*
X359172Y241051D01*
X359115Y241037D01*
X356944D01*
X356747Y241051D01*
X356550Y241065D01*
X356183Y241164D01*
X355859Y241277D01*
X355591Y241432D01*
X355464Y241502D01*
X355365Y241573D01*
X355267Y241629D01*
X355196Y241686D01*
X355140Y241742D01*
X355098Y241784D01*
X355069Y241798D01*
X355055Y241813D01*
X354914Y241968D01*
X354787Y242123D01*
X354689Y242278D01*
X354604Y242433D01*
X354463Y242757D01*
X354365Y243053D01*
X354308Y243307D01*
X354294Y243420D01*
X354280Y243518D01*
X354266Y243589D01*
Y243659D01*
Y243687D01*
Y243702D01*
Y244773D01*
X354280Y245013D01*
X354308Y245252D01*
X354365Y245464D01*
X354435Y245661D01*
X354520Y245858D01*
X354604Y246028D01*
X354703Y246183D01*
X354802Y246338D01*
X354900Y246465D01*
X354999Y246577D01*
X355084Y246676D01*
X355168Y246761D01*
X355239Y246817D01*
X355295Y246859D01*
X355323Y246887D01*
X355337Y246902D01*
X355154Y247057D01*
X354985Y247226D01*
X354844Y247409D01*
X354717Y247578D01*
X354618Y247761D01*
X354534Y247945D01*
X354449Y248114D01*
X354393Y248283D01*
X354350Y248438D01*
X354322Y248579D01*
X354294Y248706D01*
X354280Y248819D01*
X354266Y248918D01*
Y248988D01*
Y249030D01*
Y249044D01*
X354280Y249242D01*
X354294Y249439D01*
X354393Y249806D01*
X354520Y250130D01*
X354661Y250398D01*
X354731Y250525D01*
X354802Y250623D01*
X354872Y250722D01*
X354928Y250792D01*
X354985Y250849D01*
X355027Y250891D01*
X355041Y250919D01*
X355055Y250933D01*
X355210Y251074D01*
X355365Y251201D01*
X355521Y251300D01*
X355676Y251384D01*
X356000Y251525D01*
X356296Y251624D01*
X356550Y251681D01*
X356662Y251695D01*
X356761Y251709D01*
X356832Y251723D01*
X359087D01*
X359256Y251695D01*
D02*
G37*
G36*
X342000Y198355D02*
X342282Y198298D01*
X342550Y198200D01*
X342804Y198087D01*
X343029Y197932D01*
X343241Y197777D01*
X343438Y197593D01*
X343621Y197424D01*
X343777Y197241D01*
X343918Y197058D01*
X344044Y196903D01*
X344143Y196747D01*
X344228Y196635D01*
X344284Y196536D01*
X344312Y196480D01*
X344326Y196451D01*
X344355Y196381D01*
X344369Y196311D01*
Y196268D01*
Y196240D01*
X344340Y196057D01*
X344284Y195930D01*
X344199Y195831D01*
X344101Y195775D01*
X344016Y195732D01*
X343932Y195718D01*
X343875Y195704D01*
X343847D01*
X343734Y195718D01*
X343636Y195747D01*
X343551Y195789D01*
X343495Y195831D01*
X343438Y195874D01*
X343410Y195916D01*
X343382Y195944D01*
Y195958D01*
X343241Y196198D01*
X343086Y196409D01*
X342945Y196592D01*
X342790Y196747D01*
X342649Y196874D01*
X342508Y196987D01*
X342381Y197072D01*
X342254Y197142D01*
X342141Y197199D01*
X342029Y197241D01*
X341930Y197269D01*
X341859Y197297D01*
X341789D01*
X341747Y197311D01*
X341704D01*
X341465Y197297D01*
X341253Y197241D01*
X341056Y197156D01*
X340887Y197072D01*
X340760Y196987D01*
X340661Y196903D01*
X340591Y196846D01*
X340577Y196832D01*
X340421Y196649D01*
X340295Y196466D01*
X340210Y196268D01*
X340154Y196099D01*
X340125Y195944D01*
X340097Y195817D01*
Y195732D01*
Y195718D01*
Y195704D01*
X340111Y195535D01*
X340140Y195380D01*
X340182Y195225D01*
X340224Y195098D01*
X340280Y194985D01*
X340323Y194901D01*
X340351Y194844D01*
X340365Y194830D01*
X344284Y188529D01*
X344326Y188430D01*
X344355Y188332D01*
X344369Y188261D01*
Y188247D01*
Y188233D01*
X344340Y188050D01*
X344284Y187923D01*
X344199Y187824D01*
X344101Y187768D01*
X344016Y187725D01*
X343932Y187711D01*
X343875Y187697D01*
X339562D01*
X339378Y187725D01*
X339251Y187782D01*
X339153Y187866D01*
X339096Y187965D01*
X339054Y188064D01*
X339040Y188148D01*
X339026Y188205D01*
Y188233D01*
X339054Y188416D01*
X339110Y188543D01*
X339195Y188642D01*
X339294Y188698D01*
X339392Y188740D01*
X339477Y188755D01*
X339533Y188769D01*
X342888D01*
X339519Y194168D01*
X339350Y194464D01*
X339237Y194732D01*
X339153Y195000D01*
X339082Y195225D01*
X339054Y195422D01*
X339040Y195578D01*
X339026Y195634D01*
Y195676D01*
Y195690D01*
Y195704D01*
X339040Y195916D01*
X339054Y196099D01*
X339153Y196466D01*
X339280Y196790D01*
X339421Y197072D01*
X339491Y197185D01*
X339562Y197283D01*
X339632Y197382D01*
X339688Y197452D01*
X339745Y197509D01*
X339787Y197565D01*
X339801Y197579D01*
X339815Y197593D01*
X339970Y197734D01*
X340125Y197861D01*
X340280Y197960D01*
X340436Y198044D01*
X340760Y198185D01*
X341056Y198284D01*
X341310Y198340D01*
X341422Y198355D01*
X341521Y198369D01*
X341591Y198383D01*
X341704D01*
X342000Y198355D01*
D02*
G37*
G36*
X349387Y198369D02*
X349585Y198355D01*
X349951Y198256D01*
X350275Y198129D01*
X350557Y197988D01*
X350670Y197918D01*
X350769Y197847D01*
X350867Y197777D01*
X350938Y197720D01*
X350994Y197664D01*
X351036Y197621D01*
X351065Y197607D01*
X351079Y197593D01*
X351220Y197438D01*
X351333Y197283D01*
X351431Y197128D01*
X351530Y196973D01*
X351671Y196649D01*
X351755Y196353D01*
X351812Y196099D01*
X351826Y195986D01*
X351840Y195888D01*
X351854Y195817D01*
Y195761D01*
Y195718D01*
Y195704D01*
Y190362D01*
X351840Y190164D01*
X351826Y189967D01*
X351727Y189600D01*
X351614Y189276D01*
X351459Y188994D01*
X351389Y188881D01*
X351318Y188783D01*
X351262Y188684D01*
X351206Y188613D01*
X351149Y188557D01*
X351107Y188515D01*
X351093Y188487D01*
X351079Y188473D01*
X350924Y188332D01*
X350769Y188219D01*
X350614Y188120D01*
X350458Y188022D01*
X350134Y187880D01*
X349838Y187796D01*
X349585Y187740D01*
X349472Y187725D01*
X349373Y187711D01*
X349303Y187697D01*
X347047D01*
X346878Y187725D01*
X346751Y187782D01*
X346652Y187866D01*
X346596Y187965D01*
X346554Y188064D01*
X346540Y188148D01*
X346525Y188205D01*
Y188233D01*
X346554Y188416D01*
X346610Y188543D01*
X346695Y188642D01*
X346779Y188698D01*
X346878Y188740D01*
X346963Y188755D01*
X347019Y188769D01*
X349190D01*
X349430Y188783D01*
X349641Y188839D01*
X349838Y188910D01*
X350007Y189008D01*
X350134Y189093D01*
X350233Y189163D01*
X350289Y189220D01*
X350318Y189234D01*
X350473Y189417D01*
X350585Y189600D01*
X350670Y189798D01*
X350726Y189967D01*
X350755Y190122D01*
X350769Y190249D01*
X350783Y190333D01*
Y190347D01*
Y190362D01*
Y195704D01*
X350769Y195944D01*
X350712Y196155D01*
X350642Y196353D01*
X350557Y196522D01*
X350473Y196649D01*
X350402Y196747D01*
X350346Y196818D01*
X350332Y196832D01*
X350148Y196987D01*
X349951Y197114D01*
X349768Y197199D01*
X349585Y197255D01*
X349430Y197283D01*
X349303Y197311D01*
X347047D01*
X346878Y197340D01*
X346751Y197396D01*
X346652Y197481D01*
X346596Y197579D01*
X346554Y197678D01*
X346540Y197763D01*
X346525Y197819D01*
Y197847D01*
X346554Y198030D01*
X346610Y198157D01*
X346695Y198256D01*
X346779Y198312D01*
X346878Y198355D01*
X346963Y198369D01*
X347019Y198383D01*
X349190D01*
X349387Y198369D01*
D02*
G37*
G36*
X314434D02*
X314547Y198326D01*
X314631Y198256D01*
X314702Y198185D01*
X314758Y198115D01*
X314786Y198044D01*
X314814Y198002D01*
Y197988D01*
X316943Y190517D01*
X316957Y190474D01*
Y190418D01*
Y190376D01*
Y190362D01*
X316929Y190192D01*
X316873Y190065D01*
X316788Y189967D01*
X316689Y189911D01*
X316605Y189868D01*
X316520Y189854D01*
X316464Y189840D01*
X313221D01*
Y188233D01*
X313193Y188050D01*
X313137Y187923D01*
X313052Y187824D01*
X312954Y187768D01*
X312855Y187725D01*
X312770Y187711D01*
X312714Y187697D01*
X312686D01*
X312503Y187725D01*
X312376Y187782D01*
X312277Y187866D01*
X312221Y187965D01*
X312178Y188064D01*
X312164Y188148D01*
X312150Y188205D01*
Y188233D01*
Y189840D01*
X311093D01*
X310910Y189868D01*
X310783Y189925D01*
X310684Y190009D01*
X310628Y190108D01*
X310585Y190207D01*
X310571Y190291D01*
X310557Y190347D01*
Y190376D01*
X310585Y190559D01*
X310642Y190686D01*
X310726Y190784D01*
X310825Y190841D01*
X310924Y190883D01*
X311008Y190897D01*
X311065Y190911D01*
X312150D01*
Y192518D01*
X312178Y192702D01*
X312235Y192829D01*
X312319Y192927D01*
X312418Y192984D01*
X312517Y193026D01*
X312601Y193040D01*
X312658Y193054D01*
X312686D01*
X312869Y193026D01*
X312996Y192969D01*
X313095Y192885D01*
X313151Y192786D01*
X313193Y192688D01*
X313207Y192603D01*
X313221Y192547D01*
Y192518D01*
Y190911D01*
X315717D01*
X313771Y197678D01*
X313757Y197734D01*
Y197791D01*
Y197819D01*
Y197833D01*
X313785Y198016D01*
X313842Y198157D01*
X313926Y198256D01*
X314025Y198312D01*
X314124Y198355D01*
X314208Y198369D01*
X314265Y198383D01*
X314293D01*
X314434Y198369D01*
D02*
G37*
G36*
X321976D02*
X322173Y198355D01*
X322540Y198256D01*
X322864Y198129D01*
X323146Y197988D01*
X323259Y197918D01*
X323357Y197847D01*
X323456Y197777D01*
X323526Y197720D01*
X323583Y197664D01*
X323625Y197621D01*
X323653Y197607D01*
X323667Y197593D01*
X323808Y197438D01*
X323921Y197283D01*
X324020Y197128D01*
X324118Y196973D01*
X324259Y196649D01*
X324344Y196353D01*
X324400Y196099D01*
X324415Y195986D01*
X324429Y195888D01*
X324443Y195817D01*
Y195761D01*
Y195718D01*
Y195704D01*
Y190362D01*
X324429Y190164D01*
X324415Y189967D01*
X324316Y189600D01*
X324203Y189276D01*
X324048Y188994D01*
X323978Y188881D01*
X323907Y188783D01*
X323851Y188684D01*
X323794Y188613D01*
X323738Y188557D01*
X323696Y188515D01*
X323681Y188487D01*
X323667Y188473D01*
X323512Y188332D01*
X323357Y188219D01*
X323202Y188120D01*
X323047Y188022D01*
X322723Y187880D01*
X322427Y187796D01*
X322173Y187740D01*
X322060Y187725D01*
X321962Y187711D01*
X321891Y187697D01*
X319636D01*
X319466Y187725D01*
X319340Y187782D01*
X319241Y187866D01*
X319185Y187965D01*
X319142Y188064D01*
X319128Y188148D01*
X319114Y188205D01*
Y188233D01*
X319142Y188416D01*
X319199Y188543D01*
X319283Y188642D01*
X319368Y188698D01*
X319466Y188740D01*
X319551Y188755D01*
X319608Y188769D01*
X321778D01*
X322018Y188783D01*
X322229Y188839D01*
X322427Y188910D01*
X322596Y189008D01*
X322723Y189093D01*
X322822Y189163D01*
X322878Y189220D01*
X322906Y189234D01*
X323061Y189417D01*
X323174Y189600D01*
X323259Y189798D01*
X323315Y189967D01*
X323343Y190122D01*
X323357Y190249D01*
X323371Y190333D01*
Y190347D01*
Y190362D01*
Y195704D01*
X323357Y195944D01*
X323301Y196155D01*
X323230Y196353D01*
X323146Y196522D01*
X323061Y196649D01*
X322991Y196747D01*
X322934Y196818D01*
X322920Y196832D01*
X322737Y196987D01*
X322540Y197114D01*
X322356Y197199D01*
X322173Y197255D01*
X322018Y197283D01*
X321891Y197311D01*
X319636D01*
X319466Y197340D01*
X319340Y197396D01*
X319241Y197481D01*
X319185Y197579D01*
X319142Y197678D01*
X319128Y197763D01*
X319114Y197819D01*
Y197847D01*
X319142Y198030D01*
X319199Y198157D01*
X319283Y198256D01*
X319368Y198312D01*
X319466Y198355D01*
X319551Y198369D01*
X319608Y198383D01*
X321778D01*
X321976Y198369D01*
D02*
G37*
G36*
X285983Y244075D02*
X286110Y244018D01*
X286209Y243934D01*
X286265Y243835D01*
X286308Y243736D01*
X286322Y243652D01*
X286336Y243595D01*
Y243567D01*
Y233939D01*
X286308Y233770D01*
X286251Y233643D01*
X286167Y233544D01*
X286068Y233488D01*
X285969Y233445D01*
X285885Y233431D01*
X285828Y233417D01*
X285800D01*
X285617Y233445D01*
X285490Y233502D01*
X285391Y233586D01*
X285335Y233685D01*
X285292Y233770D01*
X285278Y233854D01*
X285264Y233911D01*
Y233939D01*
Y237689D01*
X282938D01*
X280951Y233713D01*
X280894Y233615D01*
X280810Y233544D01*
X280739Y233488D01*
X280655Y233459D01*
X280584Y233431D01*
X280528Y233417D01*
X280471D01*
X280401Y233431D01*
X280316Y233445D01*
X280203Y233502D01*
X280119Y233544D01*
X280105Y233572D01*
X280091D01*
X280034Y233629D01*
X279992Y233699D01*
X279936Y233812D01*
X279922Y233911D01*
Y233925D01*
Y233939D01*
X279936Y234023D01*
X279950Y234108D01*
X279978Y234164D01*
X279992Y234193D01*
X281853Y237914D01*
X281514Y238069D01*
X281218Y238267D01*
X280951Y238478D01*
X280739Y238704D01*
X280542Y238943D01*
X280387Y239197D01*
X280260Y239437D01*
X280161Y239690D01*
X280077Y239930D01*
X280020Y240156D01*
X279978Y240353D01*
X279950Y240536D01*
X279936Y240677D01*
X279922Y240790D01*
Y240861D01*
Y240889D01*
X279936Y241128D01*
X279964Y241368D01*
X280006Y241593D01*
X280063Y241805D01*
X280147Y242002D01*
X280218Y242200D01*
X280302Y242369D01*
X280387Y242524D01*
X280485Y242665D01*
X280570Y242792D01*
X280641Y242904D01*
X280711Y242989D01*
X280781Y243060D01*
X280824Y243116D01*
X280852Y243144D01*
X280866Y243158D01*
X281049Y243327D01*
X281233Y243468D01*
X281416Y243595D01*
X281613Y243708D01*
X281811Y243793D01*
X281994Y243877D01*
X282346Y243990D01*
X282515Y244018D01*
X282656Y244046D01*
X282797Y244075D01*
X282910Y244089D01*
X283009Y244103D01*
X285814D01*
X285983Y244075D01*
D02*
G37*
G36*
X277455Y244060D02*
X277582Y244004D01*
X277680Y243920D01*
X277737Y243835D01*
X277779Y243736D01*
X277793Y243652D01*
X277807Y243595D01*
Y243567D01*
X277779Y243384D01*
X277722Y243257D01*
X277638Y243158D01*
X277539Y243102D01*
X277440Y243060D01*
X277356Y243046D01*
X277299Y243031D01*
X273662D01*
X275664Y234066D01*
Y234023D01*
Y233981D01*
Y233953D01*
Y233939D01*
X275636Y233770D01*
X275580Y233643D01*
X275495Y233544D01*
X275396Y233488D01*
X275298Y233445D01*
X275213Y233431D01*
X275157Y233417D01*
X275129D01*
X274988Y233431D01*
X274875Y233488D01*
X274776Y233544D01*
X274706Y233629D01*
X274663Y233699D01*
X274635Y233770D01*
X274607Y233812D01*
Y233826D01*
X272478Y243454D01*
X272464Y243539D01*
Y243567D01*
Y243581D01*
X272493Y243750D01*
X272549Y243877D01*
X272633Y243962D01*
X272732Y244032D01*
X272831Y244060D01*
X272915Y244075D01*
X272972Y244089D01*
X277271D01*
X277455Y244060D01*
D02*
G37*
G36*
X222146Y254249D02*
X222217Y254235D01*
X222358Y254164D01*
X222414Y254122D01*
X222456Y254079D01*
X222470Y254065D01*
X222484Y254051D01*
X224585Y251951D01*
X224669Y251824D01*
X224712Y251711D01*
X224726Y251627D01*
Y251598D01*
Y251584D01*
X224698Y251401D01*
X224641Y251274D01*
X224557Y251175D01*
X224458Y251119D01*
X224359Y251077D01*
X224275Y251063D01*
X224218Y251049D01*
X224190D01*
X224120Y251063D01*
X224049Y251077D01*
X223922Y251133D01*
X223852Y251175D01*
X223824Y251204D01*
X222597Y252416D01*
Y244099D01*
X222569Y243930D01*
X222513Y243803D01*
X222428Y243704D01*
X222329Y243648D01*
X222231Y243605D01*
X222146Y243591D01*
X222090Y243577D01*
X222062D01*
X221878Y243605D01*
X221751Y243662D01*
X221653Y243746D01*
X221596Y243845D01*
X221554Y243930D01*
X221540Y244014D01*
X221526Y244071D01*
Y244099D01*
Y253727D01*
X221554Y253910D01*
X221610Y254037D01*
X221695Y254136D01*
X221794Y254192D01*
X221892Y254235D01*
X221977Y254249D01*
X222033Y254263D01*
X222062D01*
X222146Y254249D01*
D02*
G37*
G36*
X240402Y254235D02*
X240529Y254178D01*
X240627Y254094D01*
X240684Y253995D01*
X240726Y253896D01*
X240740Y253812D01*
X240754Y253755D01*
Y253727D01*
Y244099D01*
X240726Y243930D01*
X240670Y243803D01*
X240585Y243704D01*
X240486Y243648D01*
X240388Y243605D01*
X240303Y243591D01*
X240247Y243577D01*
X240219D01*
X240035Y243605D01*
X239908Y243662D01*
X239810Y243746D01*
X239753Y243845D01*
X239711Y243930D01*
X239697Y244014D01*
X239683Y244071D01*
Y244099D01*
Y248920D01*
X235947D01*
X235764Y248948D01*
X235637Y249005D01*
X235538Y249089D01*
X235482Y249188D01*
X235440Y249286D01*
X235425Y249371D01*
X235411Y249428D01*
Y249456D01*
X235440Y249639D01*
X235496Y249766D01*
X235581Y249865D01*
X235679Y249921D01*
X235778Y249963D01*
X235863Y249977D01*
X235919Y249991D01*
X239683D01*
Y253191D01*
X235947D01*
X235764Y253220D01*
X235637Y253276D01*
X235538Y253361D01*
X235482Y253459D01*
X235440Y253558D01*
X235425Y253643D01*
X235411Y253699D01*
Y253727D01*
X235440Y253910D01*
X235496Y254037D01*
X235581Y254136D01*
X235679Y254192D01*
X235778Y254235D01*
X235863Y254249D01*
X235919Y254263D01*
X240233D01*
X240402Y254235D01*
D02*
G37*
G36*
X232916D02*
X233043Y254178D01*
X233142Y254094D01*
X233198Y253995D01*
X233241Y253896D01*
X233255Y253812D01*
X233269Y253755D01*
Y253727D01*
Y244099D01*
X233241Y243930D01*
X233184Y243803D01*
X233099Y243704D01*
X233001Y243648D01*
X232916Y243605D01*
X232832Y243591D01*
X232775Y243577D01*
X230069D01*
X229829Y243591D01*
X229589Y243619D01*
X229364Y243662D01*
X229152Y243718D01*
X228772Y243873D01*
X228588Y243958D01*
X228433Y244042D01*
X228292Y244127D01*
X228165Y244212D01*
X228053Y244296D01*
X227968Y244367D01*
X227898Y244423D01*
X227841Y244465D01*
X227813Y244494D01*
X227799Y244508D01*
X227630Y244691D01*
X227489Y244874D01*
X227362Y245072D01*
X227249Y245255D01*
X227165Y245452D01*
X227080Y245635D01*
X226967Y246002D01*
X226939Y246157D01*
X226911Y246312D01*
X226883Y246439D01*
X226869Y246552D01*
X226854Y246650D01*
Y246721D01*
Y246763D01*
Y246777D01*
X226869Y247101D01*
X226925Y247412D01*
X226996Y247708D01*
X227094Y247976D01*
X227207Y248215D01*
X227334Y248441D01*
X227475Y248638D01*
X227616Y248821D01*
X227771Y248976D01*
X227898Y249117D01*
X228039Y249230D01*
X228151Y249329D01*
X228250Y249399D01*
X228321Y249456D01*
X228377Y249484D01*
X228391Y249498D01*
X228208Y249653D01*
X228067Y249822D01*
X227926Y249991D01*
X227813Y250161D01*
X227714Y250344D01*
X227630Y250513D01*
X227574Y250682D01*
X227517Y250837D01*
X227475Y250992D01*
X227447Y251133D01*
X227418Y251260D01*
X227404Y251373D01*
X227390Y251458D01*
Y251528D01*
Y251570D01*
Y251584D01*
X227404Y251796D01*
X227418Y251993D01*
X227517Y252360D01*
X227630Y252684D01*
X227771Y252966D01*
X227855Y253079D01*
X227926Y253177D01*
X227982Y253276D01*
X228039Y253347D01*
X228095Y253403D01*
X228137Y253459D01*
X228151Y253473D01*
X228165Y253487D01*
X228321Y253628D01*
X228476Y253741D01*
X228631Y253854D01*
X228786Y253939D01*
X229110Y254079D01*
X229406Y254164D01*
X229674Y254221D01*
X229787Y254235D01*
X229885Y254249D01*
X229956Y254263D01*
X232747D01*
X232916Y254235D01*
D02*
G37*
G36*
X258100Y305049D02*
X258171Y305035D01*
X258312Y304964D01*
X258368Y304922D01*
X258410Y304879D01*
X258424Y304865D01*
X258439Y304851D01*
X260539Y302751D01*
X260624Y302624D01*
X260666Y302511D01*
X260680Y302427D01*
Y302398D01*
Y302384D01*
X260652Y302201D01*
X260595Y302074D01*
X260511Y301975D01*
X260412Y301919D01*
X260313Y301877D01*
X260229Y301863D01*
X260173Y301849D01*
X260144D01*
X260074Y301863D01*
X260003Y301877D01*
X259876Y301933D01*
X259806Y301975D01*
X259778Y302004D01*
X258551Y303216D01*
Y294899D01*
X258523Y294730D01*
X258467Y294603D01*
X258382Y294504D01*
X258284Y294448D01*
X258185Y294405D01*
X258100Y294391D01*
X258044Y294377D01*
X258016D01*
X257832Y294405D01*
X257705Y294462D01*
X257607Y294546D01*
X257551Y294645D01*
X257508Y294730D01*
X257494Y294814D01*
X257480Y294871D01*
Y294899D01*
Y304527D01*
X257508Y304710D01*
X257565Y304837D01*
X257649Y304936D01*
X257748Y304992D01*
X257847Y305035D01*
X257931Y305049D01*
X257987Y305063D01*
X258016D01*
X258100Y305049D01*
D02*
G37*
G36*
X265699D02*
X265896Y305035D01*
X266262Y304936D01*
X266587Y304809D01*
X266869Y304668D01*
X266981Y304598D01*
X267080Y304527D01*
X267179Y304457D01*
X267249Y304400D01*
X267306Y304344D01*
X267348Y304301D01*
X267376Y304287D01*
X267390Y304273D01*
X267531Y304118D01*
X267644Y303963D01*
X267743Y303808D01*
X267841Y303653D01*
X267982Y303329D01*
X268067Y303033D01*
X268123Y302779D01*
X268137Y302666D01*
X268151Y302568D01*
X268165Y302497D01*
Y302441D01*
Y302398D01*
Y302384D01*
Y297042D01*
X268151Y296844D01*
X268137Y296647D01*
X268039Y296280D01*
X267926Y295956D01*
X267771Y295674D01*
X267700Y295561D01*
X267630Y295463D01*
X267573Y295364D01*
X267517Y295294D01*
X267461Y295237D01*
X267418Y295195D01*
X267404Y295167D01*
X267390Y295153D01*
X267235Y295012D01*
X267080Y294899D01*
X266925Y294800D01*
X266770Y294701D01*
X266446Y294561D01*
X266150Y294476D01*
X265896Y294419D01*
X265783Y294405D01*
X265684Y294391D01*
X265614Y294377D01*
X263358D01*
X263189Y294405D01*
X263062Y294462D01*
X262964Y294546D01*
X262907Y294645D01*
X262865Y294744D01*
X262851Y294828D01*
X262837Y294885D01*
Y294913D01*
X262865Y295096D01*
X262921Y295223D01*
X263006Y295322D01*
X263091Y295378D01*
X263189Y295420D01*
X263274Y295434D01*
X263330Y295449D01*
X265501D01*
X265741Y295463D01*
X265952Y295519D01*
X266150Y295590D01*
X266319Y295688D01*
X266446Y295773D01*
X266544Y295843D01*
X266601Y295900D01*
X266629Y295914D01*
X266784Y296097D01*
X266897Y296280D01*
X266981Y296478D01*
X267038Y296647D01*
X267066Y296802D01*
X267080Y296929D01*
X267094Y297013D01*
Y297027D01*
Y297042D01*
Y302384D01*
X267080Y302624D01*
X267024Y302835D01*
X266953Y303033D01*
X266869Y303202D01*
X266784Y303329D01*
X266714Y303428D01*
X266657Y303498D01*
X266643Y303512D01*
X266460Y303667D01*
X266262Y303794D01*
X266079Y303879D01*
X265896Y303935D01*
X265741Y303963D01*
X265614Y303991D01*
X263358D01*
X263189Y304020D01*
X263062Y304076D01*
X262964Y304161D01*
X262907Y304259D01*
X262865Y304358D01*
X262851Y304443D01*
X262837Y304499D01*
Y304527D01*
X262865Y304710D01*
X262921Y304837D01*
X263006Y304936D01*
X263091Y304992D01*
X263189Y305035D01*
X263274Y305049D01*
X263330Y305063D01*
X265501D01*
X265699Y305049D01*
D02*
G37*
G36*
X252941Y305035D02*
X253195Y304978D01*
X253434Y304879D01*
X253646Y304739D01*
X253857Y304583D01*
X254026Y304414D01*
X254195Y304231D01*
X254336Y304048D01*
X254463Y303850D01*
X254576Y303667D01*
X254661Y303498D01*
X254745Y303343D01*
X254802Y303202D01*
X254844Y303103D01*
X254858Y303047D01*
X254872Y303019D01*
X255027Y302483D01*
X255140Y301919D01*
X255224Y301369D01*
X255253Y301101D01*
X255281Y300848D01*
X255295Y300622D01*
X255309Y300397D01*
X255323Y300213D01*
Y300044D01*
X255337Y299903D01*
Y299805D01*
Y299748D01*
Y299720D01*
Y299368D01*
X255323Y299029D01*
X255295Y298691D01*
X255267Y298395D01*
X255224Y298099D01*
X255196Y297817D01*
X255154Y297577D01*
X255098Y297338D01*
X255055Y297126D01*
X255013Y296943D01*
X254985Y296788D01*
X254942Y296647D01*
X254914Y296548D01*
X254886Y296478D01*
X254872Y296421D01*
Y296407D01*
X254731Y296055D01*
X254576Y295745D01*
X254407Y295463D01*
X254238Y295237D01*
X254054Y295040D01*
X253871Y294871D01*
X253688Y294744D01*
X253519Y294631D01*
X253350Y294546D01*
X253180Y294490D01*
X253039Y294434D01*
X252913Y294405D01*
X252814Y294391D01*
X252743Y294377D01*
X252673D01*
X252405Y294405D01*
X252151Y294462D01*
X251912Y294561D01*
X251686Y294701D01*
X251489Y294842D01*
X251320Y295026D01*
X251150Y295209D01*
X251010Y295392D01*
X250883Y295576D01*
X250770Y295759D01*
X250685Y295942D01*
X250601Y296097D01*
X250544Y296224D01*
X250502Y296323D01*
X250488Y296379D01*
X250474Y296407D01*
X250319Y296957D01*
X250192Y297521D01*
X250107Y298071D01*
X250079Y298339D01*
X250051Y298592D01*
X250037Y298818D01*
X250023Y299043D01*
X250009Y299227D01*
X249995Y299396D01*
Y299537D01*
Y299635D01*
Y299692D01*
Y299720D01*
Y300072D01*
X250009Y300411D01*
X250037Y300735D01*
X250065Y301045D01*
X250107Y301327D01*
X250149Y301595D01*
X250192Y301849D01*
X250234Y302088D01*
X250276Y302286D01*
X250319Y302483D01*
X250361Y302638D01*
X250403Y302765D01*
X250431Y302878D01*
X250460Y302962D01*
X250474Y303005D01*
Y303019D01*
X250615Y303385D01*
X250770Y303695D01*
X250939Y303963D01*
X251108Y304203D01*
X251291Y304400D01*
X251475Y304569D01*
X251658Y304696D01*
X251827Y304809D01*
X251996Y304894D01*
X252165Y304950D01*
X252306Y305006D01*
X252419Y305035D01*
X252532Y305049D01*
X252602Y305063D01*
X252673D01*
X252941Y305035D01*
D02*
G37*
G36*
X196987Y305049D02*
X197185Y305035D01*
X197551Y304936D01*
X197875Y304809D01*
X198157Y304668D01*
X198270Y304598D01*
X198369Y304527D01*
X198467Y304457D01*
X198538Y304400D01*
X198594Y304344D01*
X198636Y304301D01*
X198665Y304287D01*
X198679Y304273D01*
X198820Y304118D01*
X198932Y303963D01*
X199031Y303808D01*
X199130Y303653D01*
X199271Y303329D01*
X199356Y303033D01*
X199412Y302779D01*
X199426Y302666D01*
X199440Y302568D01*
X199454Y302497D01*
Y302441D01*
Y302398D01*
Y302384D01*
Y297042D01*
X199440Y296844D01*
X199426Y296647D01*
X199327Y296280D01*
X199214Y295956D01*
X199059Y295674D01*
X198989Y295561D01*
X198918Y295463D01*
X198862Y295364D01*
X198806Y295294D01*
X198749Y295237D01*
X198707Y295195D01*
X198693Y295167D01*
X198679Y295153D01*
X198524Y295012D01*
X198369Y294899D01*
X198214Y294800D01*
X198058Y294701D01*
X197734Y294561D01*
X197438Y294476D01*
X197185Y294419D01*
X197072Y294405D01*
X196973Y294391D01*
X196903Y294377D01*
X194647D01*
X194478Y294405D01*
X194351Y294462D01*
X194252Y294546D01*
X194196Y294645D01*
X194154Y294744D01*
X194140Y294828D01*
X194125Y294885D01*
Y294913D01*
X194154Y295096D01*
X194210Y295223D01*
X194295Y295322D01*
X194379Y295378D01*
X194478Y295420D01*
X194562Y295434D01*
X194619Y295449D01*
X196790D01*
X197029Y295463D01*
X197241Y295519D01*
X197438Y295590D01*
X197607Y295688D01*
X197734Y295773D01*
X197833Y295843D01*
X197889Y295900D01*
X197918Y295914D01*
X198073Y296097D01*
X198185Y296280D01*
X198270Y296478D01*
X198326Y296647D01*
X198355Y296802D01*
X198369Y296929D01*
X198383Y297013D01*
Y297027D01*
Y297042D01*
Y302384D01*
X198369Y302624D01*
X198312Y302835D01*
X198242Y303033D01*
X198157Y303202D01*
X198073Y303329D01*
X198002Y303428D01*
X197946Y303498D01*
X197932Y303512D01*
X197748Y303667D01*
X197551Y303794D01*
X197368Y303879D01*
X197185Y303935D01*
X197029Y303963D01*
X196903Y303991D01*
X194647D01*
X194478Y304020D01*
X194351Y304076D01*
X194252Y304161D01*
X194196Y304259D01*
X194154Y304358D01*
X194140Y304443D01*
X194125Y304499D01*
Y304527D01*
X194154Y304710D01*
X194210Y304837D01*
X194295Y304936D01*
X194379Y304992D01*
X194478Y305035D01*
X194562Y305049D01*
X194619Y305063D01*
X196790D01*
X196987Y305049D01*
D02*
G37*
G36*
X189502D02*
X189699Y305035D01*
X190065Y304936D01*
X190390Y304809D01*
X190672Y304668D01*
X190784Y304598D01*
X190883Y304527D01*
X190982Y304457D01*
X191052Y304400D01*
X191109Y304344D01*
X191151Y304301D01*
X191179Y304287D01*
X191193Y304273D01*
X191334Y304118D01*
X191447Y303963D01*
X191546Y303808D01*
X191644Y303653D01*
X191785Y303329D01*
X191870Y303033D01*
X191926Y302779D01*
X191940Y302666D01*
X191954Y302568D01*
X191969Y302497D01*
Y302441D01*
Y302398D01*
Y302384D01*
Y301313D01*
X191954Y301116D01*
X191940Y300918D01*
X191842Y300552D01*
X191729Y300228D01*
X191574Y299946D01*
X191503Y299833D01*
X191433Y299734D01*
X191377Y299635D01*
X191320Y299565D01*
X191264Y299508D01*
X191222Y299466D01*
X191207Y299438D01*
X191193Y299424D01*
X191038Y299283D01*
X190883Y299170D01*
X190728Y299072D01*
X190573Y298973D01*
X190249Y298832D01*
X189953Y298747D01*
X189699Y298691D01*
X189586Y298677D01*
X189488Y298663D01*
X189417Y298649D01*
X187740D01*
X187796Y298339D01*
X187880Y298028D01*
X187993Y297746D01*
X188134Y297479D01*
X188275Y297225D01*
X188444Y296999D01*
X188613Y296788D01*
X188783Y296590D01*
X188952Y296407D01*
X189121Y296252D01*
X189262Y296125D01*
X189403Y296012D01*
X189516Y295928D01*
X189600Y295872D01*
X189657Y295829D01*
X189671Y295815D01*
X189826Y295716D01*
X189981Y295632D01*
X190150Y295561D01*
X190305Y295491D01*
X190432Y295434D01*
X190545Y295406D01*
X190615Y295378D01*
X190644Y295364D01*
X190728Y295322D01*
X190799Y295251D01*
X190841Y295181D01*
X190883Y295096D01*
X190897Y295026D01*
X190911Y294955D01*
Y294913D01*
Y294899D01*
X190897Y294828D01*
X190883Y294758D01*
X190827Y294631D01*
X190784Y294561D01*
X190756Y294546D01*
Y294532D01*
X190686Y294476D01*
X190629Y294448D01*
X190502Y294391D01*
X190404Y294377D01*
X190376D01*
X190207Y294405D01*
X190023Y294462D01*
X189812Y294532D01*
X189614Y294631D01*
X189445Y294730D01*
X189290Y294800D01*
X189248Y294842D01*
X189206Y294856D01*
X189177Y294885D01*
X189163D01*
X188938Y295040D01*
X188712Y295195D01*
X188332Y295519D01*
X187993Y295872D01*
X187697Y296224D01*
X187444Y296576D01*
X187246Y296943D01*
X187077Y297295D01*
X186936Y297634D01*
X186837Y297944D01*
X186753Y298240D01*
X186696Y298508D01*
X186668Y298733D01*
X186640Y298916D01*
X186626Y299072D01*
Y299114D01*
Y299156D01*
Y299170D01*
Y299184D01*
Y302398D01*
X186640Y302610D01*
X186654Y302793D01*
X186753Y303160D01*
X186880Y303484D01*
X187021Y303766D01*
X187091Y303879D01*
X187162Y303977D01*
X187232Y304076D01*
X187288Y304146D01*
X187345Y304203D01*
X187387Y304259D01*
X187401Y304273D01*
X187415Y304287D01*
X187570Y304428D01*
X187725Y304541D01*
X187880Y304654D01*
X188036Y304739D01*
X188360Y304879D01*
X188656Y304964D01*
X188910Y305021D01*
X189022Y305035D01*
X189121Y305049D01*
X189191Y305063D01*
X189304D01*
X189502Y305049D01*
D02*
G37*
%LPC*%
G36*
X397697Y303991D02*
X397584D01*
X397345Y303977D01*
X397133Y303921D01*
X396936Y303836D01*
X396767Y303752D01*
X396640Y303667D01*
X396541Y303583D01*
X396471Y303526D01*
X396456Y303512D01*
X396301Y303329D01*
X396175Y303146D01*
X396090Y302948D01*
X396034Y302779D01*
X396005Y302624D01*
X395977Y302497D01*
Y302412D01*
Y302398D01*
Y302384D01*
X395991Y302145D01*
X396048Y301919D01*
X396118Y301722D01*
X396203Y301567D01*
X396301Y301426D01*
X396372Y301327D01*
X396428Y301271D01*
X396442Y301243D01*
X396626Y301087D01*
X396823Y300989D01*
X397006Y300904D01*
X397190Y300848D01*
X397345Y300820D01*
X397472Y300805D01*
X397556Y300791D01*
X397584D01*
X397824Y300805D01*
X398050Y300862D01*
X398247Y300932D01*
X398402Y301017D01*
X398543Y301101D01*
X398642Y301172D01*
X398698Y301228D01*
X398726Y301243D01*
X398881Y301426D01*
X398980Y301623D01*
X399064Y301806D01*
X399121Y301990D01*
X399149Y302145D01*
X399163Y302272D01*
X399177Y302356D01*
Y302370D01*
Y302384D01*
X399163Y302624D01*
X399107Y302850D01*
X399036Y303047D01*
X398952Y303216D01*
X398867Y303343D01*
X398797Y303442D01*
X398740Y303512D01*
X398726Y303526D01*
X398543Y303681D01*
X398345Y303794D01*
X398162Y303879D01*
X397979Y303935D01*
X397824Y303963D01*
X397697Y303991D01*
D02*
G37*
G36*
Y299720D02*
X397584D01*
X397345Y299706D01*
X397133Y299650D01*
X396936Y299565D01*
X396767Y299480D01*
X396640Y299396D01*
X396541Y299311D01*
X396471Y299255D01*
X396456Y299241D01*
X396301Y299057D01*
X396175Y298874D01*
X396090Y298677D01*
X396034Y298508D01*
X396005Y298353D01*
X395977Y298226D01*
Y298141D01*
Y298127D01*
Y298113D01*
Y297042D01*
X395991Y296802D01*
X396048Y296590D01*
X396118Y296393D01*
X396203Y296224D01*
X396301Y296097D01*
X396372Y295998D01*
X396428Y295942D01*
X396442Y295914D01*
X396626Y295759D01*
X396823Y295646D01*
X397006Y295561D01*
X397190Y295505D01*
X397345Y295477D01*
X397472Y295463D01*
X397556Y295449D01*
X397584D01*
X397824Y295463D01*
X398050Y295519D01*
X398247Y295590D01*
X398402Y295688D01*
X398543Y295773D01*
X398642Y295843D01*
X398698Y295900D01*
X398726Y295914D01*
X398881Y296097D01*
X398980Y296280D01*
X399064Y296478D01*
X399121Y296647D01*
X399149Y296802D01*
X399163Y296929D01*
X399177Y297013D01*
Y297027D01*
Y297042D01*
Y298113D01*
X399163Y298353D01*
X399107Y298578D01*
X399036Y298776D01*
X398952Y298945D01*
X398867Y299072D01*
X398797Y299170D01*
X398740Y299241D01*
X398726Y299255D01*
X398543Y299410D01*
X398345Y299523D01*
X398162Y299607D01*
X397979Y299664D01*
X397824Y299692D01*
X397697Y299720D01*
D02*
G37*
G36*
X285264Y243031D02*
X282966D01*
X282812Y243003D01*
X282515Y242933D01*
X282262Y242834D01*
X282036Y242721D01*
X281853Y242609D01*
X281726Y242510D01*
X281641Y242439D01*
X281613Y242425D01*
Y242411D01*
X281500Y242298D01*
X281402Y242171D01*
X281261Y241918D01*
X281148Y241664D01*
X281063Y241424D01*
X281021Y241213D01*
X281007Y241114D01*
Y241044D01*
X280993Y240973D01*
Y240931D01*
Y240903D01*
Y240889D01*
Y240720D01*
X281021Y240564D01*
X281092Y240268D01*
X281190Y240015D01*
X281303Y239789D01*
X281416Y239606D01*
X281514Y239479D01*
X281585Y239394D01*
X281599Y239380D01*
X281613Y239366D01*
X281726Y239253D01*
X281853Y239169D01*
X282107Y239014D01*
X282360Y238915D01*
X282600Y238831D01*
X282812Y238788D01*
X282910Y238774D01*
X282981D01*
X283051Y238760D01*
X285264D01*
Y243031D01*
D02*
G37*
G36*
X232197Y253191D02*
X230069D01*
X229829Y253177D01*
X229618Y253121D01*
X229420Y253036D01*
X229251Y252952D01*
X229124Y252867D01*
X229025Y252783D01*
X228955Y252726D01*
X228941Y252712D01*
X228786Y252529D01*
X228659Y252346D01*
X228574Y252148D01*
X228518Y251979D01*
X228490Y251824D01*
X228462Y251697D01*
Y251612D01*
Y251598D01*
Y251584D01*
X228476Y251345D01*
X228532Y251133D01*
X228617Y250936D01*
X228701Y250767D01*
X228786Y250640D01*
X228870Y250541D01*
X228927Y250485D01*
X228941Y250457D01*
X229124Y250301D01*
X229307Y250189D01*
X229505Y250104D01*
X229674Y250048D01*
X229829Y250020D01*
X229956Y250005D01*
X230040Y249991D01*
X232197D01*
Y253191D01*
D02*
G37*
G36*
Y248920D02*
X229900D01*
X229744Y248892D01*
X229448Y248821D01*
X229195Y248723D01*
X228969Y248610D01*
X228786Y248497D01*
X228659Y248398D01*
X228574Y248328D01*
X228546Y248314D01*
Y248300D01*
X228433Y248187D01*
X228335Y248060D01*
X228194Y247806D01*
X228081Y247553D01*
X227996Y247313D01*
X227954Y247101D01*
X227940Y247003D01*
Y246932D01*
X227926Y246862D01*
Y246819D01*
Y246791D01*
Y246777D01*
Y246608D01*
X227954Y246453D01*
X228025Y246157D01*
X228123Y245903D01*
X228236Y245678D01*
X228349Y245494D01*
X228447Y245368D01*
X228518Y245283D01*
X228532Y245269D01*
X228546Y245255D01*
X228659Y245142D01*
X228786Y245057D01*
X229039Y244902D01*
X229293Y244804D01*
X229533Y244719D01*
X229744Y244677D01*
X229843Y244663D01*
X229914D01*
X229984Y244649D01*
X232197D01*
Y248920D01*
D02*
G37*
G36*
X252715Y303991D02*
X252673D01*
X252518Y303977D01*
X252363Y303921D01*
X252222Y303822D01*
X252095Y303710D01*
X251968Y303583D01*
X251869Y303428D01*
X251686Y303103D01*
X251545Y302779D01*
X251489Y302624D01*
X251446Y302497D01*
X251404Y302384D01*
X251376Y302286D01*
X251362Y302229D01*
Y302215D01*
X251263Y301778D01*
X251193Y301327D01*
X251136Y300918D01*
X251108Y300523D01*
X251094Y300354D01*
X251080Y300199D01*
Y300058D01*
X251066Y299946D01*
Y299847D01*
Y299776D01*
Y299734D01*
Y299720D01*
X251080Y299227D01*
X251108Y298776D01*
X251164Y298339D01*
X251193Y298155D01*
X251207Y297972D01*
X251235Y297803D01*
X251263Y297662D01*
X251291Y297521D01*
X251320Y297422D01*
X251334Y297323D01*
X251348Y297267D01*
X251362Y297225D01*
Y297211D01*
X251446Y296901D01*
X251545Y296633D01*
X251644Y296393D01*
X251742Y296196D01*
X251855Y296027D01*
X251968Y295886D01*
X252067Y295759D01*
X252180Y295674D01*
X252278Y295590D01*
X252363Y295547D01*
X252447Y295505D01*
X252532Y295477D01*
X252588Y295463D01*
X252631Y295449D01*
X252673D01*
X252828Y295463D01*
X252983Y295519D01*
X253124Y295618D01*
X253251Y295730D01*
X253364Y295857D01*
X253476Y296012D01*
X253660Y296337D01*
X253801Y296647D01*
X253857Y296802D01*
X253899Y296943D01*
X253942Y297042D01*
X253970Y297140D01*
X253984Y297197D01*
Y297211D01*
X254083Y297662D01*
X254153Y298099D01*
X254195Y298522D01*
X254224Y298916D01*
X254238Y299086D01*
X254252Y299241D01*
Y299382D01*
X254266Y299494D01*
Y299593D01*
Y299664D01*
Y299706D01*
Y299720D01*
X254252Y300199D01*
X254224Y300650D01*
X254181Y301073D01*
X254153Y301257D01*
X254125Y301440D01*
X254097Y301609D01*
X254069Y301750D01*
X254054Y301891D01*
X254026Y301990D01*
X254012Y302088D01*
X253998Y302145D01*
X253984Y302187D01*
Y302201D01*
X253899Y302511D01*
X253801Y302793D01*
X253702Y303033D01*
X253589Y303230D01*
X253491Y303413D01*
X253378Y303554D01*
X253265Y303667D01*
X253166Y303766D01*
X253068Y303836D01*
X252969Y303893D01*
X252884Y303935D01*
X252814Y303963D01*
X252757Y303977D01*
X252715Y303991D01*
D02*
G37*
G36*
X189417D02*
X189304D01*
X189065Y303977D01*
X188853Y303921D01*
X188656Y303836D01*
X188487Y303752D01*
X188360Y303667D01*
X188261Y303583D01*
X188191Y303526D01*
X188176Y303512D01*
X188022Y303329D01*
X187895Y303146D01*
X187810Y302948D01*
X187754Y302779D01*
X187725Y302624D01*
X187697Y302497D01*
Y302412D01*
Y302398D01*
Y302384D01*
Y299720D01*
X189304D01*
X189544Y299734D01*
X189769Y299790D01*
X189967Y299861D01*
X190122Y299960D01*
X190263Y300044D01*
X190362Y300115D01*
X190418Y300171D01*
X190446Y300185D01*
X190601Y300368D01*
X190700Y300552D01*
X190784Y300749D01*
X190841Y300918D01*
X190869Y301073D01*
X190883Y301200D01*
X190897Y301285D01*
Y301299D01*
Y301313D01*
Y302384D01*
X190883Y302624D01*
X190827Y302835D01*
X190756Y303033D01*
X190658Y303202D01*
X190573Y303329D01*
X190502Y303428D01*
X190446Y303498D01*
X190432Y303512D01*
X190249Y303667D01*
X190065Y303794D01*
X189868Y303879D01*
X189699Y303935D01*
X189544Y303963D01*
X189417Y303991D01*
D02*
G37*
%LPD*%
M02*
