G04*
G04 #@! TF.GenerationSoftware,Altium Limited,Altium Designer,23.6.0 (18)*
G04*
G04 Layer_Physical_Order=2*
G04 Layer_Color=16711680*
%FSLAX44Y44*%
%MOMM*%
G71*
G04*
G04 #@! TF.SameCoordinates,D937CF5F-481C-4708-B2B1-4CAA2D9F1EF8*
G04*
G04*
G04 #@! TF.FilePolarity,Positive*
G04*
G01*
G75*
G04:AMPARAMS|DCode=16|XSize=0.9mm|YSize=0.7mm|CornerRadius=0.175mm|HoleSize=0mm|Usage=FLASHONLY|Rotation=90.000|XOffset=0mm|YOffset=0mm|HoleType=Round|Shape=RoundedRectangle|*
%AMROUNDEDRECTD16*
21,1,0.9000,0.3500,0,0,90.0*
21,1,0.5500,0.7000,0,0,90.0*
1,1,0.3500,0.1750,0.2750*
1,1,0.3500,0.1750,-0.2750*
1,1,0.3500,-0.1750,-0.2750*
1,1,0.3500,-0.1750,0.2750*
%
%ADD16ROUNDEDRECTD16*%
G04:AMPARAMS|DCode=20|XSize=0.9mm|YSize=0.7mm|CornerRadius=0.175mm|HoleSize=0mm|Usage=FLASHONLY|Rotation=0.000|XOffset=0mm|YOffset=0mm|HoleType=Round|Shape=RoundedRectangle|*
%AMROUNDEDRECTD20*
21,1,0.9000,0.3500,0,0,0.0*
21,1,0.5500,0.7000,0,0,0.0*
1,1,0.3500,0.2750,-0.1750*
1,1,0.3500,-0.2750,-0.1750*
1,1,0.3500,-0.2750,0.1750*
1,1,0.3500,0.2750,0.1750*
%
%ADD20ROUNDEDRECTD20*%
G04:AMPARAMS|DCode=23|XSize=0.95mm|YSize=0.85mm|CornerRadius=0.2125mm|HoleSize=0mm|Usage=FLASHONLY|Rotation=180.000|XOffset=0mm|YOffset=0mm|HoleType=Round|Shape=RoundedRectangle|*
%AMROUNDEDRECTD23*
21,1,0.9500,0.4250,0,0,180.0*
21,1,0.5250,0.8500,0,0,180.0*
1,1,0.4250,-0.2625,0.2125*
1,1,0.4250,0.2625,0.2125*
1,1,0.4250,0.2625,-0.2125*
1,1,0.4250,-0.2625,-0.2125*
%
%ADD23ROUNDEDRECTD23*%
G04:AMPARAMS|DCode=29|XSize=0.95mm|YSize=0.85mm|CornerRadius=0.2125mm|HoleSize=0mm|Usage=FLASHONLY|Rotation=270.000|XOffset=0mm|YOffset=0mm|HoleType=Round|Shape=RoundedRectangle|*
%AMROUNDEDRECTD29*
21,1,0.9500,0.4250,0,0,270.0*
21,1,0.5250,0.8500,0,0,270.0*
1,1,0.4250,-0.2125,-0.2625*
1,1,0.4250,-0.2125,0.2625*
1,1,0.4250,0.2125,0.2625*
1,1,0.4250,0.2125,-0.2625*
%
%ADD29ROUNDEDRECTD29*%
%ADD50C,0.3048*%
%ADD52C,0.6350*%
%ADD53C,0.7620*%
%ADD54C,1.4000*%
%ADD55R,1.5000X1.5000*%
%ADD56C,1.5000*%
%ADD57R,1.5000X1.5000*%
%ADD58C,1.0160*%
G04:AMPARAMS|DCode=59|XSize=1.4mm|YSize=1.2mm|CornerRadius=0.3mm|HoleSize=0mm|Usage=FLASHONLY|Rotation=0.000|XOffset=0mm|YOffset=0mm|HoleType=Round|Shape=RoundedRectangle|*
%AMROUNDEDRECTD59*
21,1,1.4000,0.6000,0,0,0.0*
21,1,0.8000,1.2000,0,0,0.0*
1,1,0.6000,0.4000,-0.3000*
1,1,0.6000,-0.4000,-0.3000*
1,1,0.6000,-0.4000,0.3000*
1,1,0.6000,0.4000,0.3000*
%
%ADD59ROUNDEDRECTD59*%
G36*
X914400D02*
X0D01*
Y635000D01*
X914400D01*
Y0D01*
D02*
G37*
%LPC*%
G36*
X820300Y585350D02*
X800220D01*
Y581137D01*
X681870D01*
Y585350D01*
X661790D01*
Y581137D01*
X515500D01*
Y585350D01*
X495420D01*
Y565270D01*
X515500D01*
Y569483D01*
X661790D01*
Y565270D01*
X681870D01*
Y569483D01*
X800220D01*
Y565270D01*
X820300D01*
Y585350D01*
D02*
G37*
G36*
X380880D02*
X360800D01*
Y565270D01*
X380880D01*
Y585350D01*
D02*
G37*
G36*
X811582Y559950D02*
X808938D01*
X806385Y559266D01*
X804095Y557944D01*
X802226Y556075D01*
X802031Y555737D01*
X680059D01*
X679864Y556075D01*
X677995Y557944D01*
X675705Y559266D01*
X673152Y559950D01*
X670508D01*
X667955Y559266D01*
X665665Y557944D01*
X663796Y556075D01*
X663601Y555737D01*
X627260D01*
Y559950D01*
X607180D01*
Y555737D01*
X513689D01*
X513494Y556075D01*
X511625Y557944D01*
X509335Y559266D01*
X506782Y559950D01*
X504138D01*
X501585Y559266D01*
X499295Y557944D01*
X497426Y556075D01*
X496104Y553785D01*
X495420Y551232D01*
Y548588D01*
X496104Y546035D01*
X497426Y543745D01*
X499295Y541876D01*
X501585Y540554D01*
X504138Y539870D01*
X506782D01*
X509335Y540554D01*
X511625Y541876D01*
X513494Y543745D01*
X513689Y544083D01*
X607180D01*
Y539870D01*
X627260D01*
Y544083D01*
X663601D01*
X663796Y543745D01*
X665665Y541876D01*
X667955Y540554D01*
X670508Y539870D01*
X673152D01*
X675705Y540554D01*
X677995Y541876D01*
X679864Y543745D01*
X680059Y544083D01*
X802031D01*
X802226Y543745D01*
X804095Y541876D01*
X806385Y540554D01*
X808938Y539870D01*
X811582D01*
X814135Y540554D01*
X816425Y541876D01*
X818294Y543745D01*
X819616Y546035D01*
X820300Y548588D01*
Y551232D01*
X819616Y553785D01*
X818294Y556075D01*
X816425Y557944D01*
X814135Y559266D01*
X811582Y559950D01*
D02*
G37*
G36*
X372162D02*
X369518D01*
X366965Y559266D01*
X364675Y557944D01*
X362806Y556075D01*
X361484Y553785D01*
X360800Y551232D01*
Y548588D01*
X361484Y546035D01*
X362806Y543745D01*
X364675Y541876D01*
X366965Y540554D01*
X369518Y539870D01*
X372162D01*
X374715Y540554D01*
X377005Y541876D01*
X378874Y543745D01*
X380196Y546035D01*
X380880Y548588D01*
Y551232D01*
X380196Y553785D01*
X378874Y556075D01*
X377005Y557944D01*
X374715Y559266D01*
X372162Y559950D01*
D02*
G37*
G36*
X618542Y534550D02*
X615898D01*
X613345Y533866D01*
X611055Y532544D01*
X609186Y530675D01*
X608991Y530337D01*
X513689D01*
X513494Y530675D01*
X511625Y532544D01*
X509335Y533866D01*
X506782Y534550D01*
X504138D01*
X501585Y533866D01*
X499295Y532544D01*
X497426Y530675D01*
X496104Y528385D01*
X495420Y525832D01*
Y523188D01*
X496104Y520635D01*
X497426Y518345D01*
X499295Y516476D01*
X501585Y515154D01*
X504138Y514470D01*
X506782D01*
X509335Y515154D01*
X511625Y516476D01*
X513494Y518345D01*
X513689Y518683D01*
X608991D01*
X609186Y518345D01*
X611055Y516476D01*
X613345Y515154D01*
X615898Y514470D01*
X618542D01*
X621095Y515154D01*
X623385Y516476D01*
X625254Y518345D01*
X626576Y520635D01*
X627260Y523188D01*
Y525832D01*
X626576Y528385D01*
X625254Y530675D01*
X623385Y532544D01*
X621095Y533866D01*
X618542Y534550D01*
D02*
G37*
G36*
X673152D02*
X670508D01*
X667955Y533866D01*
X665665Y532544D01*
X663796Y530675D01*
X663601Y530337D01*
X650240D01*
X648010Y529893D01*
X646120Y528630D01*
X622426Y504937D01*
X513689D01*
X513494Y505275D01*
X511625Y507144D01*
X509335Y508466D01*
X506782Y509150D01*
X504138D01*
X501585Y508466D01*
X499295Y507144D01*
X497426Y505275D01*
X496104Y502985D01*
X495420Y500432D01*
Y497788D01*
X496104Y495235D01*
X497426Y492945D01*
X499295Y491076D01*
X501585Y489754D01*
X504138Y489070D01*
X506782D01*
X509335Y489754D01*
X511625Y491076D01*
X513494Y492945D01*
X513689Y493283D01*
X624840D01*
X627070Y493727D01*
X628960Y494990D01*
X652654Y518683D01*
X663601D01*
X663796Y518345D01*
X665665Y516476D01*
X667955Y515154D01*
X670508Y514470D01*
X673152D01*
X675705Y515154D01*
X677995Y516476D01*
X679864Y518345D01*
X681186Y520635D01*
X681870Y523188D01*
Y525832D01*
X681186Y528385D01*
X679864Y530675D01*
X677995Y532544D01*
X675705Y533866D01*
X673152Y534550D01*
D02*
G37*
G36*
X372162D02*
X369518D01*
X366965Y533866D01*
X364675Y532544D01*
X362806Y530675D01*
X361484Y528385D01*
X360800Y525832D01*
Y523188D01*
X361484Y520635D01*
X362806Y518345D01*
X364675Y516476D01*
X366965Y515154D01*
X369518Y514470D01*
X372162D01*
X374715Y515154D01*
X377005Y516476D01*
X378874Y518345D01*
X380196Y520635D01*
X380880Y523188D01*
Y525832D01*
X380196Y528385D01*
X378874Y530675D01*
X377005Y532544D01*
X374715Y533866D01*
X372162Y534550D01*
D02*
G37*
G36*
Y509150D02*
X369518D01*
X366965Y508466D01*
X364675Y507144D01*
X362806Y505275D01*
X361484Y502985D01*
X360800Y500432D01*
Y497788D01*
X361484Y495235D01*
X362806Y492945D01*
X364675Y491076D01*
X366965Y489754D01*
X369518Y489070D01*
X372162D01*
X374715Y489754D01*
X377005Y491076D01*
X378874Y492945D01*
X380196Y495235D01*
X380880Y497788D01*
Y500432D01*
X380196Y502985D01*
X378874Y505275D01*
X377005Y507144D01*
X374715Y508466D01*
X372162Y509150D01*
D02*
G37*
G36*
X116573Y487680D02*
X114567D01*
X112629Y487161D01*
X110891Y486157D01*
X109473Y484739D01*
X108469Y483001D01*
X107950Y481063D01*
Y479057D01*
X108469Y477119D01*
X109096Y476034D01*
Y444500D01*
X109588Y442022D01*
X110992Y439922D01*
X136392Y414522D01*
X138492Y413118D01*
X140970Y412626D01*
X213144D01*
X214229Y411999D01*
X216167Y411480D01*
X218173D01*
X220111Y411999D01*
X221196Y412626D01*
X297038D01*
X317695Y391969D01*
X318019Y390759D01*
X319023Y389021D01*
X320441Y387603D01*
X322179Y386599D01*
X324117Y386080D01*
X326123D01*
X328061Y386599D01*
X329799Y387603D01*
X331217Y389021D01*
X332221Y390759D01*
X332740Y392697D01*
Y394703D01*
X332221Y396641D01*
X331217Y398379D01*
X329799Y399798D01*
X328061Y400801D01*
X326851Y401125D01*
X304298Y423678D01*
X302198Y425082D01*
X299720Y425574D01*
X221196D01*
X220111Y426201D01*
X218173Y426720D01*
X216167D01*
X214229Y426201D01*
X213144Y425574D01*
X143652D01*
X122044Y447182D01*
Y476034D01*
X122671Y477119D01*
X123190Y479057D01*
Y481063D01*
X122671Y483001D01*
X121667Y484739D01*
X120249Y486157D01*
X118511Y487161D01*
X116573Y487680D01*
D02*
G37*
G36*
X809042Y393580D02*
X806398D01*
X803845Y392896D01*
X801555Y391574D01*
X799686Y389705D01*
X798364Y387415D01*
X797680Y384862D01*
Y382218D01*
X798364Y379665D01*
X799686Y377375D01*
X801555Y375506D01*
X803845Y374184D01*
X806398Y373500D01*
X809042D01*
X811595Y374184D01*
X813885Y375506D01*
X815754Y377375D01*
X817076Y379665D01*
X817760Y382218D01*
Y384862D01*
X817076Y387415D01*
X815754Y389705D01*
X813885Y391574D01*
X811595Y392896D01*
X809042Y393580D01*
D02*
G37*
G36*
X758242D02*
X755598D01*
X753045Y392896D01*
X750755Y391574D01*
X748886Y389705D01*
X747564Y387415D01*
X746880Y384862D01*
Y382218D01*
X747564Y379665D01*
X748886Y377375D01*
X750755Y375506D01*
X753045Y374184D01*
X755598Y373500D01*
X758242D01*
X760795Y374184D01*
X763085Y375506D01*
X764954Y377375D01*
X766276Y379665D01*
X766960Y382218D01*
Y384862D01*
X766276Y387415D01*
X764954Y389705D01*
X763085Y391574D01*
X760795Y392896D01*
X758242Y393580D01*
D02*
G37*
G36*
X732842D02*
X730198D01*
X727645Y392896D01*
X725355Y391574D01*
X723486Y389705D01*
X722164Y387415D01*
X721480Y384862D01*
Y382218D01*
X722164Y379665D01*
X723486Y377375D01*
X725355Y375506D01*
X727645Y374184D01*
X730198Y373500D01*
X732842D01*
X735395Y374184D01*
X737685Y375506D01*
X739554Y377375D01*
X740876Y379665D01*
X741560Y382218D01*
Y384862D01*
X740876Y387415D01*
X739554Y389705D01*
X737685Y391574D01*
X735395Y392896D01*
X732842Y393580D01*
D02*
G37*
G36*
X707442D02*
X704798D01*
X702245Y392896D01*
X699955Y391574D01*
X698086Y389705D01*
X696764Y387415D01*
X696080Y384862D01*
Y382218D01*
X696764Y379665D01*
X698086Y377375D01*
X699955Y375506D01*
X702245Y374184D01*
X704798Y373500D01*
X707442D01*
X709995Y374184D01*
X712285Y375506D01*
X714154Y377375D01*
X715476Y379665D01*
X716160Y382218D01*
Y384862D01*
X715476Y387415D01*
X714154Y389705D01*
X712285Y391574D01*
X709995Y392896D01*
X707442Y393580D01*
D02*
G37*
G36*
X682042D02*
X679398D01*
X676845Y392896D01*
X674555Y391574D01*
X672686Y389705D01*
X671364Y387415D01*
X670680Y384862D01*
Y382218D01*
X671364Y379665D01*
X672686Y377375D01*
X674555Y375506D01*
X676845Y374184D01*
X679398Y373500D01*
X682042D01*
X684595Y374184D01*
X686885Y375506D01*
X688754Y377375D01*
X690076Y379665D01*
X690760Y382218D01*
Y384862D01*
X690076Y387415D01*
X688754Y389705D01*
X686885Y391574D01*
X684595Y392896D01*
X682042Y393580D01*
D02*
G37*
G36*
X656642D02*
X653998D01*
X651445Y392896D01*
X649155Y391574D01*
X647286Y389705D01*
X645964Y387415D01*
X645280Y384862D01*
Y382218D01*
X645964Y379665D01*
X647286Y377375D01*
X649155Y375506D01*
X651445Y374184D01*
X653998Y373500D01*
X656642D01*
X659195Y374184D01*
X661485Y375506D01*
X663354Y377375D01*
X664676Y379665D01*
X665360Y382218D01*
Y384862D01*
X664676Y387415D01*
X663354Y389705D01*
X661485Y391574D01*
X659195Y392896D01*
X656642Y393580D01*
D02*
G37*
G36*
X241385Y299851D02*
X236135D01*
X234315Y299489D01*
X232772Y298458D01*
X231873Y297114D01*
X224057D01*
X223158Y298458D01*
X221615Y299489D01*
X219795Y299851D01*
X214545D01*
X212725Y299489D01*
X211182Y298458D01*
X210151Y296915D01*
X209789Y295095D01*
Y290845D01*
X210151Y289025D01*
X211182Y287482D01*
X212725Y286451D01*
X214545Y286089D01*
X219795D01*
X221615Y286451D01*
X223158Y287482D01*
X224057Y288826D01*
X231873D01*
X232772Y287482D01*
X234306Y286456D01*
Y273217D01*
X233297Y272543D01*
X232349Y271124D01*
X232016Y269450D01*
Y263950D01*
X232349Y262276D01*
X233297Y260857D01*
X234716Y259909D01*
X236390Y259576D01*
X239890D01*
X241564Y259909D01*
X242983Y260857D01*
X243931Y262276D01*
X243987Y262556D01*
X247593D01*
X247903Y262021D01*
X249321Y260602D01*
X251059Y259599D01*
X252997Y259080D01*
X255003D01*
X256941Y259599D01*
X258679Y260602D01*
X260098Y262021D01*
X261101Y263759D01*
X261620Y265697D01*
Y267703D01*
X261101Y269641D01*
X260098Y271379D01*
X258679Y272798D01*
X256941Y273801D01*
X255003Y274320D01*
X252997D01*
X251059Y273801D01*
X249321Y272798D01*
X247903Y271379D01*
X247593Y270844D01*
X243987D01*
X243931Y271124D01*
X242983Y272543D01*
X242594Y272803D01*
Y286329D01*
X243205Y286451D01*
X244748Y287482D01*
X245779Y289025D01*
X246141Y290845D01*
Y295095D01*
X245779Y296915D01*
X244748Y298458D01*
X243205Y299489D01*
X241385Y299851D01*
D02*
G37*
G36*
X68313Y488950D02*
X66307D01*
X64369Y488431D01*
X62631Y487427D01*
X61213Y486009D01*
X60209Y484271D01*
X59690Y482333D01*
Y480327D01*
X60209Y478389D01*
X60836Y477304D01*
Y363220D01*
X61328Y360742D01*
X62732Y358642D01*
X159252Y262122D01*
X161352Y260718D01*
X163830Y260226D01*
X220242D01*
X220716Y259909D01*
X222390Y259576D01*
X225890D01*
X227564Y259909D01*
X228983Y260857D01*
X229931Y262276D01*
X230264Y263950D01*
Y264939D01*
X230614Y266700D01*
X230264Y268461D01*
Y269450D01*
X229931Y271124D01*
X228983Y272543D01*
X227564Y273491D01*
X225890Y273824D01*
X222390D01*
X220716Y273491D01*
X220242Y273174D01*
X166512D01*
X73784Y365902D01*
Y477304D01*
X74411Y478389D01*
X74930Y480327D01*
Y482333D01*
X74411Y484271D01*
X73408Y486009D01*
X71989Y487427D01*
X70251Y488431D01*
X68313Y488950D01*
D02*
G37*
G36*
X299453Y269240D02*
X297447D01*
X295509Y268721D01*
X293771Y267717D01*
X292353Y266299D01*
X291349Y264561D01*
X290830Y262623D01*
Y260617D01*
X291349Y258679D01*
X292353Y256941D01*
X293771Y255522D01*
X294306Y255214D01*
Y251607D01*
X294026Y251551D01*
X292607Y250603D01*
X291659Y249184D01*
X291326Y247510D01*
Y244010D01*
X291659Y242336D01*
X292607Y240917D01*
X294026Y239969D01*
X295700Y239636D01*
X301200D01*
X302874Y239969D01*
X304293Y240917D01*
X305241Y242336D01*
X305574Y244010D01*
Y247510D01*
X305241Y249184D01*
X304293Y250603D01*
X302874Y251551D01*
X302594Y251607D01*
Y255214D01*
X303129Y255522D01*
X304548Y256941D01*
X305551Y258679D01*
X306070Y260617D01*
Y262623D01*
X305551Y264561D01*
X304548Y266299D01*
X303129Y267717D01*
X301391Y268721D01*
X299453Y269240D01*
D02*
G37*
G36*
X810312Y250070D02*
X807668D01*
X805115Y249386D01*
X802825Y248064D01*
X800956Y246195D01*
X799634Y243905D01*
X798950Y241352D01*
Y238708D01*
X799634Y236155D01*
X800956Y233865D01*
X802825Y231996D01*
X805115Y230674D01*
X807668Y229990D01*
X810312D01*
X812865Y230674D01*
X815155Y231996D01*
X817024Y233865D01*
X818346Y236155D01*
X819030Y238708D01*
Y241352D01*
X818346Y243905D01*
X817024Y246195D01*
X815155Y248064D01*
X812865Y249386D01*
X810312Y250070D01*
D02*
G37*
G36*
X759512D02*
X756868D01*
X754315Y249386D01*
X752025Y248064D01*
X750156Y246195D01*
X748834Y243905D01*
X748150Y241352D01*
Y238708D01*
X748834Y236155D01*
X750156Y233865D01*
X752025Y231996D01*
X754315Y230674D01*
X756868Y229990D01*
X759512D01*
X762065Y230674D01*
X764355Y231996D01*
X766224Y233865D01*
X767546Y236155D01*
X768230Y238708D01*
Y241352D01*
X767546Y243905D01*
X766224Y246195D01*
X764355Y248064D01*
X762065Y249386D01*
X759512Y250070D01*
D02*
G37*
G36*
X734112D02*
X731468D01*
X728915Y249386D01*
X726625Y248064D01*
X724756Y246195D01*
X723434Y243905D01*
X722750Y241352D01*
Y238708D01*
X723434Y236155D01*
X724756Y233865D01*
X726625Y231996D01*
X728915Y230674D01*
X731468Y229990D01*
X734112D01*
X736665Y230674D01*
X738955Y231996D01*
X740824Y233865D01*
X742146Y236155D01*
X742830Y238708D01*
Y241352D01*
X742146Y243905D01*
X740824Y246195D01*
X738955Y248064D01*
X736665Y249386D01*
X734112Y250070D01*
D02*
G37*
G36*
X708712D02*
X706068D01*
X703515Y249386D01*
X701225Y248064D01*
X699356Y246195D01*
X698034Y243905D01*
X697350Y241352D01*
Y238708D01*
X698034Y236155D01*
X699356Y233865D01*
X701225Y231996D01*
X703515Y230674D01*
X706068Y229990D01*
X708712D01*
X711265Y230674D01*
X713555Y231996D01*
X715424Y233865D01*
X716746Y236155D01*
X717430Y238708D01*
Y241352D01*
X716746Y243905D01*
X715424Y246195D01*
X713555Y248064D01*
X711265Y249386D01*
X708712Y250070D01*
D02*
G37*
G36*
X683312D02*
X680668D01*
X678115Y249386D01*
X675825Y248064D01*
X673956Y246195D01*
X672634Y243905D01*
X671950Y241352D01*
Y238708D01*
X672634Y236155D01*
X673956Y233865D01*
X675825Y231996D01*
X678115Y230674D01*
X680668Y229990D01*
X683312D01*
X685865Y230674D01*
X688155Y231996D01*
X690024Y233865D01*
X691346Y236155D01*
X692030Y238708D01*
Y241352D01*
X691346Y243905D01*
X690024Y246195D01*
X688155Y248064D01*
X685865Y249386D01*
X683312Y250070D01*
D02*
G37*
G36*
X657912D02*
X655268D01*
X652715Y249386D01*
X650425Y248064D01*
X648556Y246195D01*
X647234Y243905D01*
X646550Y241352D01*
Y238708D01*
X647234Y236155D01*
X648556Y233865D01*
X650425Y231996D01*
X652715Y230674D01*
X655268Y229990D01*
X657912D01*
X660465Y230674D01*
X662755Y231996D01*
X664624Y233865D01*
X665946Y236155D01*
X666630Y238708D01*
Y241352D01*
X665946Y243905D01*
X664624Y246195D01*
X662755Y248064D01*
X660465Y249386D01*
X657912Y250070D01*
D02*
G37*
G36*
X93713Y487680D02*
X91707D01*
X89769Y487161D01*
X88031Y486157D01*
X86613Y484739D01*
X85609Y483001D01*
X85090Y481063D01*
Y479057D01*
X85609Y477119D01*
X86236Y476034D01*
Y379730D01*
X86728Y377252D01*
X88132Y375152D01*
X124962Y338322D01*
X127062Y336918D01*
X129540Y336426D01*
X321168D01*
X329934Y327660D01*
X325622Y323348D01*
X324218Y321248D01*
X323726Y318770D01*
Y311364D01*
X305793D01*
X305725Y311409D01*
X303905Y311771D01*
X298655D01*
X296835Y311409D01*
X295292Y310378D01*
X294261Y308835D01*
X293899Y307015D01*
Y302765D01*
X294261Y300945D01*
X295292Y299402D01*
X296835Y298371D01*
X298655Y298009D01*
X303905D01*
X305725Y298371D01*
X305793Y298416D01*
X308391D01*
Y270605D01*
X308883Y268127D01*
X310287Y266027D01*
X326101Y250213D01*
Y229594D01*
X323282D01*
X323215Y229639D01*
X321395Y230001D01*
X316145D01*
X314325Y229639D01*
X312782Y228608D01*
X311751Y227065D01*
X311389Y225245D01*
Y222846D01*
X311356Y222680D01*
Y222351D01*
X310248Y220694D01*
X309756Y218216D01*
Y216077D01*
X309011Y215648D01*
X307593Y214229D01*
X306589Y212491D01*
X306070Y210553D01*
Y208547D01*
X306589Y206609D01*
X307593Y204871D01*
X309011Y203452D01*
X310749Y202449D01*
X312687Y201930D01*
X314693D01*
X316631Y202449D01*
X318369Y203452D01*
X319788Y204871D01*
X320791Y206609D01*
X321310Y208547D01*
Y208950D01*
X322212Y210300D01*
X322704Y212777D01*
Y215682D01*
X323349Y216646D01*
X340928D01*
X340995Y216601D01*
X342815Y216239D01*
X348065D01*
X349885Y216601D01*
X349952Y216646D01*
X352371Y216646D01*
X352706Y216310D01*
X352706Y216310D01*
X352706Y216310D01*
X352943Y216073D01*
X353017Y215977D01*
X353767Y214165D01*
X353886Y213264D01*
X354001Y213280D01*
X354317Y211693D01*
X355720Y209592D01*
X357308Y208005D01*
X357308Y208005D01*
X358546Y206767D01*
X358706Y206660D01*
X358823Y206506D01*
X359751Y205962D01*
X360646Y205364D01*
X360835Y205326D01*
X361002Y205229D01*
X362293Y204781D01*
X363621Y203452D01*
X365359Y202449D01*
X367297Y201930D01*
X369303D01*
X371241Y202449D01*
X372979Y203452D01*
X374398Y204871D01*
X375401Y206609D01*
X375920Y208547D01*
Y208964D01*
X379228Y212272D01*
X380632Y214372D01*
X381124Y216850D01*
Y252514D01*
X381751Y253599D01*
X382270Y255537D01*
Y257543D01*
X381751Y259481D01*
X380747Y261219D01*
X379329Y262638D01*
X377591Y263641D01*
X375653Y264160D01*
X374262D01*
X372224Y266198D01*
X370123Y267602D01*
X367645Y268094D01*
X363301D01*
X362485Y268639D01*
X360665Y269001D01*
X356415D01*
X354595Y268639D01*
X353052Y267608D01*
X352021Y266065D01*
X351659Y264245D01*
Y258995D01*
X352021Y257175D01*
X353052Y255632D01*
X354595Y254601D01*
X356415Y254239D01*
X360665D01*
X362485Y254601D01*
X363301Y255146D01*
X364964D01*
X368147Y251962D01*
X368176Y251943D01*
Y219532D01*
X367126Y218482D01*
X365690Y218842D01*
X365333Y220018D01*
X363705Y223063D01*
X363450Y223540D01*
X362984Y224109D01*
X362381Y224948D01*
X361862Y225466D01*
X360964Y226364D01*
X359631Y227698D01*
X357530Y229102D01*
X355052Y229594D01*
X349952Y229594D01*
X349885Y229639D01*
X348065Y230001D01*
X342815D01*
X340995Y229639D01*
X340928Y229594D01*
X339049D01*
Y252895D01*
X338557Y255373D01*
X337153Y257473D01*
X321339Y273287D01*
Y295331D01*
X322609Y295876D01*
X324038Y294921D01*
X326200Y294492D01*
X334200D01*
X336362Y294921D01*
X338194Y296146D01*
X339418Y297978D01*
X339849Y300140D01*
Y306140D01*
X339418Y308302D01*
X338194Y310134D01*
X336674Y311150D01*
Y316088D01*
X340821Y320235D01*
X342031Y320559D01*
X343116Y321186D01*
X360680D01*
X363158Y321678D01*
X365258Y323082D01*
X373697Y331521D01*
X374713Y330741D01*
X373899Y329331D01*
X373380Y327393D01*
Y325387D01*
X373899Y323449D01*
X374671Y322113D01*
Y310489D01*
X364332D01*
X363032Y311359D01*
X360870Y311789D01*
X352870D01*
X350708Y311359D01*
X348876Y310134D01*
X347651Y308302D01*
X347221Y306140D01*
Y300140D01*
X347651Y297978D01*
X348876Y296146D01*
X350708Y294921D01*
X352870Y294492D01*
X360870D01*
X363032Y294921D01*
X364864Y296146D01*
X365796Y297541D01*
X380415D01*
X382602Y297976D01*
X392638D01*
X407546Y283068D01*
Y233896D01*
X406919Y232811D01*
X406400Y230873D01*
Y228867D01*
X406919Y226929D01*
X407923Y225191D01*
X409341Y223773D01*
X411079Y222769D01*
X413017Y222250D01*
X415023D01*
X416961Y222769D01*
X418699Y223773D01*
X420117Y225191D01*
X421121Y226929D01*
X421640Y228867D01*
Y230873D01*
X421121Y232811D01*
X420494Y233896D01*
Y285750D01*
X420002Y288228D01*
X418598Y290328D01*
X399898Y309028D01*
X397798Y310431D01*
X395320Y310924D01*
X387619D01*
Y322615D01*
X388101Y323449D01*
X388620Y325387D01*
Y327393D01*
X388101Y329331D01*
X387098Y331069D01*
X385679Y332487D01*
X383941Y333491D01*
X382003Y334010D01*
X379997D01*
X378059Y333491D01*
X376649Y332677D01*
X375869Y333693D01*
X385271Y343095D01*
X386481Y343419D01*
X388219Y344422D01*
X389637Y345841D01*
X390641Y347579D01*
X391160Y349517D01*
Y351523D01*
X390641Y353461D01*
X389637Y355199D01*
X388219Y356618D01*
X386481Y357621D01*
X384543Y358140D01*
X382537D01*
X380599Y357621D01*
X378861Y356618D01*
X377443Y355199D01*
X376439Y353461D01*
X376115Y352251D01*
X357998Y334134D01*
X343116D01*
X342031Y334761D01*
X340821Y335085D01*
X328428Y347478D01*
X326328Y348882D01*
X323850Y349374D01*
X132222D01*
X99184Y382412D01*
Y409845D01*
X100454Y410013D01*
X100849Y408539D01*
X101853Y406801D01*
X103271Y405382D01*
X105009Y404379D01*
X106219Y404055D01*
X144012Y366262D01*
X146112Y364858D01*
X148590Y364366D01*
X586740D01*
X589218Y364858D01*
X591318Y366262D01*
X602122Y377066D01*
X619880D01*
Y373500D01*
X624081D01*
Y250070D01*
X621150D01*
Y229990D01*
X641230D01*
Y250070D01*
X637029D01*
Y373500D01*
X639960D01*
Y393580D01*
X619880D01*
Y390014D01*
X599440D01*
X596962Y389522D01*
X594862Y388118D01*
X584058Y377314D01*
X151272D01*
X115375Y413211D01*
X115051Y414421D01*
X114047Y416159D01*
X112629Y417578D01*
X110891Y418581D01*
X108953Y419100D01*
X106947D01*
X105009Y418581D01*
X103271Y417578D01*
X101853Y416159D01*
X100849Y414421D01*
X100454Y412948D01*
X99184Y413115D01*
Y476034D01*
X99811Y477119D01*
X100330Y479057D01*
Y481063D01*
X99811Y483001D01*
X98807Y484739D01*
X97389Y486157D01*
X95651Y487161D01*
X93713Y487680D01*
D02*
G37*
G36*
X294373Y332740D02*
X292367D01*
X290429Y332221D01*
X288691Y331217D01*
X287272Y329799D01*
X286269Y328061D01*
X285945Y326851D01*
X269742Y310648D01*
X268338Y308548D01*
X267846Y306070D01*
Y246522D01*
X259889Y238565D01*
X258679Y238241D01*
X256941Y237237D01*
X255522Y235819D01*
X254519Y234081D01*
X254000Y232143D01*
Y230137D01*
X254519Y228199D01*
X255522Y226461D01*
X256941Y225042D01*
X258679Y224039D01*
X260617Y223520D01*
X262623D01*
X264561Y224039D01*
X266299Y225042D01*
X267717Y226461D01*
X268721Y228199D01*
X269045Y229409D01*
X278898Y239262D01*
X280302Y241362D01*
X280794Y243840D01*
Y303388D01*
X295101Y317695D01*
X296311Y318019D01*
X298049Y319023D01*
X299468Y320441D01*
X300471Y322179D01*
X300990Y324117D01*
Y326123D01*
X300471Y328061D01*
X299468Y329799D01*
X298049Y331217D01*
X296311Y332221D01*
X294373Y332740D01*
D02*
G37*
G36*
X42913Y488950D02*
X40907D01*
X38969Y488431D01*
X37231Y487427D01*
X35812Y486009D01*
X34809Y484271D01*
X34290Y482333D01*
Y480327D01*
X34809Y478389D01*
X35436Y477304D01*
Y361950D01*
X35928Y359472D01*
X37332Y357372D01*
X190695Y204009D01*
X191019Y202799D01*
X192022Y201061D01*
X193441Y199643D01*
X195179Y198639D01*
X197117Y198120D01*
X199123D01*
X201061Y198639D01*
X202799Y199643D01*
X204217Y201061D01*
X205221Y202799D01*
X205740Y204737D01*
Y206743D01*
X205221Y208681D01*
X204217Y210419D01*
X202799Y211838D01*
X201061Y212841D01*
X199851Y213165D01*
X48384Y364632D01*
Y477304D01*
X49011Y478389D01*
X49530Y480327D01*
Y482333D01*
X49011Y484271D01*
X48007Y486009D01*
X46589Y487427D01*
X44851Y488431D01*
X42913Y488950D01*
D02*
G37*
G36*
X820300Y161170D02*
X800220D01*
Y156957D01*
X681870D01*
Y161170D01*
X661790D01*
Y156957D01*
X515500D01*
Y161170D01*
X495420D01*
Y141090D01*
X515500D01*
Y145303D01*
X661790D01*
Y141090D01*
X681870D01*
Y145303D01*
X800220D01*
Y141090D01*
X820300D01*
Y161170D01*
D02*
G37*
G36*
X380880D02*
X360800D01*
Y141090D01*
X380880D01*
Y161170D01*
D02*
G37*
G36*
X811582Y135770D02*
X808938D01*
X806385Y135086D01*
X804095Y133764D01*
X802226Y131895D01*
X802031Y131557D01*
X680059D01*
X679864Y131895D01*
X677995Y133764D01*
X675705Y135086D01*
X673152Y135770D01*
X670508D01*
X667955Y135086D01*
X665665Y133764D01*
X663796Y131895D01*
X663601Y131557D01*
X627260D01*
Y135770D01*
X607180D01*
Y131557D01*
X513689D01*
X513494Y131895D01*
X511625Y133764D01*
X509335Y135086D01*
X506782Y135770D01*
X504138D01*
X501585Y135086D01*
X499295Y133764D01*
X497426Y131895D01*
X496104Y129605D01*
X495420Y127052D01*
Y124408D01*
X496104Y121855D01*
X497426Y119565D01*
X499295Y117696D01*
X501585Y116374D01*
X504138Y115690D01*
X506782D01*
X509335Y116374D01*
X511625Y117696D01*
X513494Y119565D01*
X513689Y119903D01*
X607180D01*
Y115690D01*
X627260D01*
Y119903D01*
X663601D01*
X663796Y119565D01*
X665665Y117696D01*
X667955Y116374D01*
X670508Y115690D01*
X673152D01*
X675705Y116374D01*
X677995Y117696D01*
X679864Y119565D01*
X680059Y119903D01*
X802031D01*
X802226Y119565D01*
X804095Y117696D01*
X806385Y116374D01*
X808938Y115690D01*
X811582D01*
X814135Y116374D01*
X816425Y117696D01*
X818294Y119565D01*
X819616Y121855D01*
X820300Y124408D01*
Y127052D01*
X819616Y129605D01*
X818294Y131895D01*
X816425Y133764D01*
X814135Y135086D01*
X811582Y135770D01*
D02*
G37*
G36*
X372162D02*
X369518D01*
X366965Y135086D01*
X364675Y133764D01*
X362806Y131895D01*
X361484Y129605D01*
X360800Y127052D01*
Y124408D01*
X361484Y121855D01*
X362806Y119565D01*
X364675Y117696D01*
X366965Y116374D01*
X369518Y115690D01*
X372162D01*
X374715Y116374D01*
X377005Y117696D01*
X378874Y119565D01*
X380196Y121855D01*
X380880Y124408D01*
Y127052D01*
X380196Y129605D01*
X378874Y131895D01*
X377005Y133764D01*
X374715Y135086D01*
X372162Y135770D01*
D02*
G37*
G36*
X618542Y110370D02*
X615898D01*
X613345Y109686D01*
X611055Y108364D01*
X609186Y106495D01*
X608991Y106157D01*
X513689D01*
X513494Y106495D01*
X511625Y108364D01*
X509335Y109686D01*
X506782Y110370D01*
X504138D01*
X501585Y109686D01*
X499295Y108364D01*
X497426Y106495D01*
X496104Y104205D01*
X495420Y101652D01*
Y99008D01*
X496104Y96455D01*
X497426Y94165D01*
X499295Y92296D01*
X501585Y90974D01*
X504138Y90290D01*
X506782D01*
X509335Y90974D01*
X511625Y92296D01*
X513494Y94165D01*
X513689Y94503D01*
X608991D01*
X609186Y94165D01*
X611055Y92296D01*
X613345Y90974D01*
X615898Y90290D01*
X618542D01*
X621095Y90974D01*
X623385Y92296D01*
X625254Y94165D01*
X626576Y96455D01*
X627260Y99008D01*
Y101652D01*
X626576Y104205D01*
X625254Y106495D01*
X623385Y108364D01*
X621095Y109686D01*
X618542Y110370D01*
D02*
G37*
G36*
X673152D02*
X670508D01*
X667955Y109686D01*
X665665Y108364D01*
X663796Y106495D01*
X663601Y106157D01*
X646430D01*
X644200Y105713D01*
X642310Y104450D01*
X618616Y80757D01*
X513689D01*
X513494Y81095D01*
X511625Y82964D01*
X509335Y84286D01*
X506782Y84970D01*
X504138D01*
X501585Y84286D01*
X499295Y82964D01*
X497426Y81095D01*
X496104Y78805D01*
X495420Y76252D01*
Y73608D01*
X496104Y71055D01*
X497426Y68765D01*
X499295Y66896D01*
X501585Y65574D01*
X504138Y64890D01*
X506782D01*
X509335Y65574D01*
X511625Y66896D01*
X513494Y68765D01*
X513689Y69103D01*
X621030D01*
X623260Y69547D01*
X625150Y70810D01*
X648844Y94503D01*
X663601D01*
X663796Y94165D01*
X665665Y92296D01*
X667955Y90974D01*
X670508Y90290D01*
X673152D01*
X675705Y90974D01*
X677995Y92296D01*
X679864Y94165D01*
X681186Y96455D01*
X681870Y99008D01*
Y101652D01*
X681186Y104205D01*
X679864Y106495D01*
X677995Y108364D01*
X675705Y109686D01*
X673152Y110370D01*
D02*
G37*
G36*
X372162D02*
X369518D01*
X366965Y109686D01*
X364675Y108364D01*
X362806Y106495D01*
X361484Y104205D01*
X360800Y101652D01*
Y99008D01*
X361484Y96455D01*
X362806Y94165D01*
X364675Y92296D01*
X366965Y90974D01*
X369518Y90290D01*
X372162D01*
X374715Y90974D01*
X377005Y92296D01*
X378874Y94165D01*
X380196Y96455D01*
X380880Y99008D01*
Y101652D01*
X380196Y104205D01*
X378874Y106495D01*
X377005Y108364D01*
X374715Y109686D01*
X372162Y110370D01*
D02*
G37*
G36*
Y84970D02*
X369518D01*
X366965Y84286D01*
X364675Y82964D01*
X362806Y81095D01*
X361484Y78805D01*
X360800Y76252D01*
Y73608D01*
X361484Y71055D01*
X362806Y68765D01*
X364675Y66896D01*
X366965Y65574D01*
X369518Y64890D01*
X372162D01*
X374715Y65574D01*
X377005Y66896D01*
X378874Y68765D01*
X380196Y71055D01*
X380880Y73608D01*
Y76252D01*
X380196Y78805D01*
X378874Y81095D01*
X377005Y82964D01*
X374715Y84286D01*
X372162Y84970D01*
D02*
G37*
%LPD*%
D16*
X238140Y266700D02*
D03*
X224140D02*
D03*
D20*
X298450Y245760D02*
D03*
Y231760D02*
D03*
D23*
X381290Y291390D02*
D03*
Y304890D02*
D03*
X301280Y291390D02*
D03*
Y304890D02*
D03*
X345440Y236620D02*
D03*
Y223120D02*
D03*
X318770Y236620D02*
D03*
Y223120D02*
D03*
X238760Y306470D02*
D03*
Y292970D02*
D03*
X217170Y306470D02*
D03*
Y292970D02*
D03*
D29*
X345040Y261620D02*
D03*
X358540D02*
D03*
D50*
X298450Y245760D02*
Y261620D01*
X318570Y236420D02*
X318770Y236620D01*
X217170Y292970D02*
X238760D01*
X238450Y292660D02*
X238760Y292970D01*
X238450Y267010D02*
Y292660D01*
X238140Y266700D02*
X238450Y267010D01*
X238140Y266700D02*
X254000D01*
D52*
X646430Y100330D02*
X671830D01*
X505460Y74930D02*
X621030D01*
X646430Y100330D01*
X505460D02*
X617220D01*
X505460Y125730D02*
X617220D01*
X671830D01*
X810260D01*
X505460Y151130D02*
X671830D01*
X810260D01*
X650240Y524510D02*
X671830D01*
X624840Y499110D02*
X650240Y524510D01*
X505460Y499110D02*
X624840D01*
X505460Y524510D02*
X617220D01*
X671830Y549910D02*
X810260D01*
X617220D02*
X671830D01*
X505460D02*
X617220D01*
X671830Y575310D02*
X810260D01*
X505460D02*
X671830D01*
D53*
X357285Y220888D02*
X357284Y220888D01*
X360299Y214170D02*
G03*
X357803Y220370I-13788J-1949D01*
G01*
X92710Y379730D02*
X129540Y342900D01*
X323850D02*
X339090Y327660D01*
X129540Y342900D02*
X323850D01*
X339090Y327660D02*
X360680D01*
X383054Y350034D01*
X630555Y240665D02*
Y382905D01*
X148590Y370840D02*
X586740D01*
X599440Y383540D02*
X629920D01*
X586740Y370840D02*
X599440Y383540D01*
X107950Y411480D02*
X148590Y370840D01*
X217170Y419100D02*
X299720D01*
X140970D02*
X217170D01*
X414020Y229870D02*
Y285750D01*
X395320Y304450D02*
X414020Y285750D01*
X299720Y419100D02*
X325120Y393700D01*
X115570Y444500D02*
Y480060D01*
Y444500D02*
X140970Y419100D01*
X92710Y379730D02*
Y480060D01*
X67310Y363220D02*
Y481330D01*
Y363220D02*
X163830Y266700D01*
X41910Y361950D02*
X198120Y205740D01*
X41910Y361950D02*
Y481330D01*
X163830Y266700D02*
X224140D01*
X314865Y304890D02*
X328450D01*
X301280D02*
X314865D01*
X345440Y223120D02*
X346380D01*
X332575D02*
X345440D01*
X318770D02*
X332575D01*
X314865Y270605D02*
Y304890D01*
X332575Y223120D02*
Y252895D01*
X314865Y270605D02*
X332575Y252895D01*
X346380Y223120D02*
X355052Y223120D01*
X363124Y211345D02*
X368300Y209550D01*
X355052Y223120D02*
X357284Y220888D01*
X357285Y220888D02*
X357803Y220370D01*
X360299Y214170D02*
X361886Y212583D01*
X361886Y212583D02*
X363124Y211345D01*
X368300Y210500D02*
X374650Y216850D01*
X317830Y222680D02*
X318270Y223120D01*
X317830Y219816D02*
Y222680D01*
X316230Y218216D02*
X317830Y219816D01*
X316230Y212777D02*
Y218216D01*
X313690Y210237D02*
X316230Y212777D01*
X313690Y209550D02*
Y210237D01*
X328450Y304890D02*
X330200Y303140D01*
X381290Y304890D02*
X381730Y304450D01*
X395320D01*
X274320Y306070D02*
X293370Y325120D01*
X274320Y243840D02*
Y306070D01*
X261620Y231140D02*
X274320Y243840D01*
X368300Y209550D02*
Y210500D01*
X374650Y216850D02*
Y256540D01*
X381145Y305035D02*
X381290Y304890D01*
X381145Y305035D02*
Y326245D01*
X381000Y326390D02*
X381145Y326245D01*
X356870Y303140D02*
X357745Y304015D01*
X380415D01*
X381290Y304890D01*
X330200Y303140D02*
Y318770D01*
X339090Y327660D01*
X358540Y261620D02*
X367645D01*
X372725Y256540D01*
X374650D01*
D54*
X63000Y273460D02*
D03*
Y229460D02*
D03*
D55*
X810260Y575310D02*
D03*
X671830D02*
D03*
X617220Y549910D02*
D03*
X505460Y575310D02*
D03*
X370840D02*
D03*
X810260Y151130D02*
D03*
X617220Y125730D02*
D03*
X505460Y151130D02*
D03*
X370840D02*
D03*
X671830D02*
D03*
D56*
X810260Y549910D02*
D03*
Y524510D02*
D03*
X671830Y499110D02*
D03*
Y524510D02*
D03*
Y549910D02*
D03*
X617220Y524510D02*
D03*
X505460Y473710D02*
D03*
Y499110D02*
D03*
Y524510D02*
D03*
Y549910D02*
D03*
X370840Y473710D02*
D03*
Y499110D02*
D03*
Y524510D02*
D03*
Y549910D02*
D03*
X655320Y383540D02*
D03*
X680720D02*
D03*
X706120D02*
D03*
X731520D02*
D03*
X756920D02*
D03*
X782320D02*
D03*
X807720D02*
D03*
X810260Y125730D02*
D03*
Y100330D02*
D03*
X617220D02*
D03*
X505460Y49530D02*
D03*
Y74930D02*
D03*
Y100330D02*
D03*
Y125730D02*
D03*
X370840Y49530D02*
D03*
Y74930D02*
D03*
Y100330D02*
D03*
Y125730D02*
D03*
X671830Y74930D02*
D03*
Y100330D02*
D03*
Y125730D02*
D03*
X656590Y240030D02*
D03*
X681990D02*
D03*
X707390D02*
D03*
X732790D02*
D03*
X758190D02*
D03*
X783590D02*
D03*
X808990D02*
D03*
D57*
X629920Y383540D02*
D03*
X631190Y240030D02*
D03*
D58*
X889000Y355600D02*
D03*
Y50800D02*
D03*
X863600Y25400D02*
D03*
X787400D02*
D03*
X711200D02*
D03*
X635000D02*
D03*
X889000Y127000D02*
D03*
X558800Y25400D02*
D03*
X25400Y127000D02*
D03*
X279400Y25400D02*
D03*
X203200D02*
D03*
X127000D02*
D03*
X50800D02*
D03*
X889000Y279400D02*
D03*
Y584200D02*
D03*
X863600Y609600D02*
D03*
X812800D02*
D03*
X736600D02*
D03*
X660400D02*
D03*
X584200D02*
D03*
X508000D02*
D03*
X889000Y508000D02*
D03*
X431800Y609600D02*
D03*
X355600D02*
D03*
X889000Y431800D02*
D03*
X279400Y609600D02*
D03*
X203200D02*
D03*
X127000D02*
D03*
X50800D02*
D03*
X889000Y203200D02*
D03*
X25400Y533400D02*
D03*
X177800Y444500D02*
D03*
X302260Y388620D02*
D03*
X383540Y350520D02*
D03*
X299720Y276860D02*
D03*
X107950Y411480D02*
D03*
X414020Y229870D02*
D03*
X325120Y393700D02*
D03*
X115570Y480060D02*
D03*
X92710D02*
D03*
X67310Y481330D02*
D03*
X41910D02*
D03*
X217170Y419100D02*
D03*
X231140Y214630D02*
D03*
X198120Y205740D02*
D03*
X316230Y250190D02*
D03*
X426720Y217170D02*
D03*
X374650Y278130D02*
D03*
X293370Y325120D02*
D03*
X339090Y327660D02*
D03*
X381000Y326390D02*
D03*
X339090Y208280D02*
D03*
X374650Y256540D02*
D03*
X368300Y209550D02*
D03*
X313690D02*
D03*
X254000Y266700D02*
D03*
X298450Y261620D02*
D03*
X261620Y231140D02*
D03*
X299720Y215900D02*
D03*
D59*
X330200Y286140D02*
D03*
Y303140D02*
D03*
X356870Y286140D02*
D03*
Y303140D02*
D03*
M02*
