G04*
G04 #@! TF.GenerationSoftware,Altium Limited,Altium Designer,23.6.0 (18)*
G04*
G04 Layer_Color=8421504*
%FSLAX44Y44*%
%MOMM*%
G71*
G04*
G04 #@! TF.SameCoordinates,D937CF5F-481C-4708-B2B1-4CAA2D9F1EF8*
G04*
G04*
G04 #@! TF.FilePolarity,Positive*
G04*
G01*
G75*
%ADD14R,2.3000X0.5000*%
%ADD15R,2.5000X2.0000*%
G04:AMPARAMS|DCode=16|XSize=0.9mm|YSize=0.7mm|CornerRadius=0.175mm|HoleSize=0mm|Usage=FLASHONLY|Rotation=90.000|XOffset=0mm|YOffset=0mm|HoleType=Round|Shape=RoundedRectangle|*
%AMROUNDEDRECTD16*
21,1,0.9000,0.3500,0,0,90.0*
21,1,0.5500,0.7000,0,0,90.0*
1,1,0.3500,0.1750,0.2750*
1,1,0.3500,0.1750,-0.2750*
1,1,0.3500,-0.1750,-0.2750*
1,1,0.3500,-0.1750,0.2750*
%
%ADD16ROUNDEDRECTD16*%
%ADD17R,0.8000X0.8000*%
%ADD18R,0.8000X0.8000*%
%ADD19R,1.3000X1.6000*%
G04:AMPARAMS|DCode=20|XSize=0.9mm|YSize=0.7mm|CornerRadius=0.175mm|HoleSize=0mm|Usage=FLASHONLY|Rotation=0.000|XOffset=0mm|YOffset=0mm|HoleType=Round|Shape=RoundedRectangle|*
%AMROUNDEDRECTD20*
21,1,0.9000,0.3500,0,0,0.0*
21,1,0.5500,0.7000,0,0,0.0*
1,1,0.3500,0.2750,-0.1750*
1,1,0.3500,-0.2750,-0.1750*
1,1,0.3500,-0.2750,0.1750*
1,1,0.3500,0.2750,0.1750*
%
%ADD20ROUNDEDRECTD20*%
%ADD21R,0.9500X1.4500*%
%ADD22R,3.2500X1.4500*%
G04:AMPARAMS|DCode=23|XSize=0.95mm|YSize=0.85mm|CornerRadius=0.2125mm|HoleSize=0mm|Usage=FLASHONLY|Rotation=180.000|XOffset=0mm|YOffset=0mm|HoleType=Round|Shape=RoundedRectangle|*
%AMROUNDEDRECTD23*
21,1,0.9500,0.4250,0,0,180.0*
21,1,0.5250,0.8500,0,0,180.0*
1,1,0.4250,-0.2625,0.2125*
1,1,0.4250,0.2625,0.2125*
1,1,0.4250,0.2625,-0.2125*
1,1,0.4250,-0.2625,-0.2125*
%
%ADD23ROUNDEDRECTD23*%
G04:AMPARAMS|DCode=24|XSize=1.35mm|YSize=1mm|CornerRadius=0.25mm|HoleSize=0mm|Usage=FLASHONLY|Rotation=180.000|XOffset=0mm|YOffset=0mm|HoleType=Round|Shape=RoundedRectangle|*
%AMROUNDEDRECTD24*
21,1,1.3500,0.5000,0,0,180.0*
21,1,0.8500,1.0000,0,0,180.0*
1,1,0.5000,-0.4250,0.2500*
1,1,0.5000,0.4250,0.2500*
1,1,0.5000,0.4250,-0.2500*
1,1,0.5000,-0.4250,-0.2500*
%
%ADD24ROUNDEDRECTD24*%
%ADD25R,2.8100X0.8800*%
%ADD26R,1.4750X0.3000*%
%ADD27R,0.3000X1.4750*%
%ADD28R,0.6500X1.5250*%
G04:AMPARAMS|DCode=29|XSize=0.95mm|YSize=0.85mm|CornerRadius=0.2125mm|HoleSize=0mm|Usage=FLASHONLY|Rotation=270.000|XOffset=0mm|YOffset=0mm|HoleType=Round|Shape=RoundedRectangle|*
%AMROUNDEDRECTD29*
21,1,0.9500,0.4250,0,0,270.0*
21,1,0.5250,0.8500,0,0,270.0*
1,1,0.4250,-0.2125,-0.2625*
1,1,0.4250,-0.2125,0.2625*
1,1,0.4250,0.2125,0.2625*
1,1,0.4250,0.2125,-0.2625*
%
%ADD29ROUNDEDRECTD29*%
D14*
X89000Y267460D02*
D03*
Y259460D02*
D03*
Y251460D02*
D03*
Y243460D02*
D03*
Y235460D02*
D03*
D15*
X33000Y295960D02*
D03*
X88000D02*
D03*
Y206960D02*
D03*
X33000D02*
D03*
D16*
X482600Y382270D02*
D03*
X468600D02*
D03*
X481980Y406400D02*
D03*
X467980D02*
D03*
X139080Y262890D02*
D03*
X125080D02*
D03*
X139080Y245110D02*
D03*
X125080D02*
D03*
X216520Y408940D02*
D03*
X230520D02*
D03*
X216520Y430530D02*
D03*
X230520D02*
D03*
X333390Y408940D02*
D03*
X319390D02*
D03*
X318770Y430530D02*
D03*
X332770D02*
D03*
D17*
X504310Y406400D02*
D03*
X519310D02*
D03*
X504310Y382270D02*
D03*
X519310D02*
D03*
D18*
X293370Y84970D02*
D03*
Y69970D02*
D03*
X318770Y84970D02*
D03*
Y69970D02*
D03*
D19*
X229940Y332690D02*
D03*
Y294690D02*
D03*
X206940D02*
D03*
Y332690D02*
D03*
D20*
X293370Y105380D02*
D03*
Y119380D02*
D03*
X318770Y104760D02*
D03*
Y118760D02*
D03*
X219835Y205120D02*
D03*
Y191120D02*
D03*
X198120Y238140D02*
D03*
Y224140D02*
D03*
D21*
X64730Y384830D02*
D03*
X87630D02*
D03*
X110530D02*
D03*
D22*
X87630Y450830D02*
D03*
D23*
X35560Y385680D02*
D03*
Y399180D02*
D03*
X139700D02*
D03*
Y385680D02*
D03*
X241300Y204870D02*
D03*
Y191370D02*
D03*
Y224390D02*
D03*
Y237890D02*
D03*
X219835Y224390D02*
D03*
Y237890D02*
D03*
X180340Y318370D02*
D03*
Y331870D02*
D03*
D24*
X110490Y317390D02*
D03*
Y335390D02*
D03*
X121920Y207120D02*
D03*
Y189120D02*
D03*
D25*
X139700Y284640D02*
D03*
Y317340D02*
D03*
D26*
X279170Y286420D02*
D03*
Y281420D02*
D03*
Y276420D02*
D03*
Y271420D02*
D03*
Y266420D02*
D03*
Y261420D02*
D03*
Y256420D02*
D03*
Y251420D02*
D03*
Y246420D02*
D03*
Y241420D02*
D03*
Y236420D02*
D03*
Y231420D02*
D03*
Y226420D02*
D03*
Y221420D02*
D03*
Y216420D02*
D03*
Y211420D02*
D03*
X393930D02*
D03*
Y216420D02*
D03*
Y221420D02*
D03*
Y226420D02*
D03*
Y231420D02*
D03*
Y236420D02*
D03*
Y241420D02*
D03*
Y246420D02*
D03*
Y251420D02*
D03*
Y256420D02*
D03*
Y261420D02*
D03*
Y266420D02*
D03*
Y271420D02*
D03*
Y276420D02*
D03*
Y281420D02*
D03*
Y286420D02*
D03*
D27*
X299050Y191540D02*
D03*
X304050D02*
D03*
X309050D02*
D03*
X314050D02*
D03*
X319050D02*
D03*
X324050D02*
D03*
X329050D02*
D03*
X334050D02*
D03*
X339050D02*
D03*
X344050D02*
D03*
X349050D02*
D03*
X354050D02*
D03*
X359050D02*
D03*
X364050D02*
D03*
X369050D02*
D03*
X374050D02*
D03*
Y306300D02*
D03*
X369050D02*
D03*
X364050D02*
D03*
X359050D02*
D03*
X354050D02*
D03*
X349050D02*
D03*
X344050D02*
D03*
X339050D02*
D03*
X334050D02*
D03*
X329050D02*
D03*
X324050D02*
D03*
X319050D02*
D03*
X314050D02*
D03*
X309050D02*
D03*
X304050D02*
D03*
X299050D02*
D03*
D28*
X256540Y408490D02*
D03*
X269240D02*
D03*
X281940D02*
D03*
X294640D02*
D03*
Y462730D02*
D03*
X281940D02*
D03*
X269240D02*
D03*
X256540D02*
D03*
D29*
X295040Y495300D02*
D03*
X281540D02*
D03*
X211690Y269240D02*
D03*
X225190D02*
D03*
M02*
